%FSLAX46Y46*%
G04 Gerber Fmt 4.6, Leading zero omitted, Abs format (unit mm)*
G04 Created by KiCad (PCBNEW (2014-08-24 BZR 5094)-product) date Mon 25 Aug 2014 20:36:51 CEST*
%MOMM*%
G01*
G04 APERTURE LIST*
%ADD10C,0.170000*%
%ADD11C,0.350000*%
%ADD12C,0.100000*%
%ADD13C,0.200000*%
%ADD14C,0.150000*%
%ADD15C,0.381000*%
%ADD16C,0.254000*%
%ADD17C,0.127000*%
%ADD18C,0.250190*%
%ADD19C,0.251460*%
%ADD20C,2.000000*%
%ADD21C,4.300000*%
%ADD22C,3.200000*%
%ADD23O,3.500000X2.000000*%
%ADD24C,3.800000*%
%ADD25R,2.000000X2.000000*%
%ADD26C,1.501140*%
%ADD27R,0.599440X1.000760*%
%ADD28R,1.000760X0.599440*%
%ADD29R,0.600000X1.600000*%
%ADD30R,2.000000X1.700000*%
%ADD31O,2.000000X1.700000*%
%ADD32R,3.048000X1.651000*%
%ADD33R,6.096000X6.096000*%
%ADD34C,3.000000*%
%ADD35C,3.500000*%
%ADD36C,1.195000*%
%ADD37C,1.900000*%
%ADD38C,2.800000*%
%ADD39C,5.050000*%
%ADD40C,4.500000*%
%ADD41C,2.700000*%
%ADD42C,4.000000*%
%ADD43R,1.200000X0.300000*%
%ADD44R,0.300000X1.200000*%
%ADD45R,1.700000X1.700000*%
%ADD46O,1.700000X1.700000*%
%ADD47C,0.900000*%
%ADD48R,1.400000X1.400000*%
%ADD49C,1.400000*%
%ADD50R,1.300000X1.100000*%
%ADD51R,1.100000X1.300000*%
%ADD52R,0.900000X1.000000*%
%ADD53R,1.700000X2.400000*%
%ADD54R,2.400000X1.700000*%
%ADD55R,1.021080X0.408940*%
%ADD56O,0.750000X1.250000*%
%ADD57R,2.500000X2.500000*%
%ADD58R,1.600000X0.600000*%
%ADD59O,2.500000X1.800000*%
%ADD60O,1.800000X2.500000*%
G04 APERTURE END LIST*
D10*
D11*
X99571429Y-75267857D02*
X99928572Y-76767857D01*
X100285714Y-75267857D02*
X99928572Y-76767857D01*
X99785714Y-77303571D01*
X99714286Y-77410714D01*
X99571429Y-77517857D01*
X100857143Y-75267857D02*
X100857143Y-76767857D01*
X100857143Y-75482143D02*
X100928571Y-75375000D01*
X101071429Y-75267857D01*
X101285714Y-75267857D01*
X101428571Y-75375000D01*
X101500000Y-75589286D01*
X101500000Y-76767857D01*
X102142857Y-76660714D02*
X102285714Y-76767857D01*
X102571429Y-76767857D01*
X102714286Y-76660714D01*
X102785714Y-76446429D01*
X102785714Y-76339286D01*
X102714286Y-76125000D01*
X102571429Y-76017857D01*
X102357143Y-76017857D01*
X102214286Y-75910714D01*
X102142857Y-75696429D01*
X102142857Y-75589286D01*
X102214286Y-75375000D01*
X102357143Y-75267857D01*
X102571429Y-75267857D01*
X102714286Y-75375000D01*
X103214286Y-75267857D02*
X103785715Y-75267857D01*
X103428572Y-74517857D02*
X103428572Y-76446429D01*
X103500000Y-76660714D01*
X103642858Y-76767857D01*
X103785715Y-76767857D01*
X104928572Y-76767857D02*
X104928572Y-75589286D01*
X104857143Y-75375000D01*
X104714286Y-75267857D01*
X104428572Y-75267857D01*
X104285715Y-75375000D01*
X104928572Y-76660714D02*
X104785715Y-76767857D01*
X104428572Y-76767857D01*
X104285715Y-76660714D01*
X104214286Y-76446429D01*
X104214286Y-76232143D01*
X104285715Y-76017857D01*
X104428572Y-75910714D01*
X104785715Y-75910714D01*
X104928572Y-75803571D01*
X105642858Y-76553571D02*
X105714286Y-76660714D01*
X105642858Y-76767857D01*
X105571429Y-76660714D01*
X105642858Y-76553571D01*
X105642858Y-76767857D01*
X106571430Y-76767857D02*
X106428572Y-76660714D01*
X106357144Y-76553571D01*
X106285715Y-76339286D01*
X106285715Y-75696429D01*
X106357144Y-75482143D01*
X106428572Y-75375000D01*
X106571430Y-75267857D01*
X106785715Y-75267857D01*
X106928572Y-75375000D01*
X107000001Y-75482143D01*
X107071430Y-75696429D01*
X107071430Y-76339286D01*
X107000001Y-76553571D01*
X106928572Y-76660714D01*
X106785715Y-76767857D01*
X106571430Y-76767857D01*
X107714287Y-76767857D02*
X107714287Y-75267857D01*
X107714287Y-75696429D02*
X107785715Y-75482143D01*
X107857144Y-75375000D01*
X108000001Y-75267857D01*
X108142858Y-75267857D01*
X109285715Y-75267857D02*
X109285715Y-77089286D01*
X109214286Y-77303571D01*
X109142858Y-77410714D01*
X109000001Y-77517857D01*
X108785715Y-77517857D01*
X108642858Y-77410714D01*
X109285715Y-76660714D02*
X109142858Y-76767857D01*
X108857144Y-76767857D01*
X108714286Y-76660714D01*
X108642858Y-76553571D01*
X108571429Y-76339286D01*
X108571429Y-75696429D01*
X108642858Y-75482143D01*
X108714286Y-75375000D01*
X108857144Y-75267857D01*
X109142858Y-75267857D01*
X109285715Y-75375000D01*
D10*
X100885714Y-64066666D02*
X101552381Y-64066666D01*
X100504762Y-64233333D02*
X101219048Y-64400000D01*
X101219048Y-63966666D01*
X101266667Y-63733333D02*
X101266667Y-63399999D01*
X101552381Y-63799999D02*
X100552381Y-63566666D01*
X101552381Y-63333333D01*
D12*
X120000000Y-54000000D02*
G75*
G03X116000000Y-50000000I-4000000J0D01*
G74*
G01*
X116000000Y-120000000D02*
G75*
G03X120000000Y-116000000I0J4000000D01*
G74*
G01*
X50000000Y-116000000D02*
G75*
G03X54000000Y-120000000I4000000J0D01*
G74*
G01*
X54000000Y-50000000D02*
G75*
G03X50000000Y-54000000I0J-4000000D01*
G74*
G01*
D13*
X80904762Y-117392857D02*
X80571428Y-117392857D01*
X80571428Y-118178571D02*
X80571428Y-116678571D01*
X81047619Y-116678571D01*
X81333333Y-116678571D02*
X81571428Y-118178571D01*
X81761905Y-117107143D01*
X81952381Y-118178571D01*
X82190476Y-116678571D01*
X83142857Y-118178571D02*
X82809523Y-117464286D01*
X82571428Y-118178571D02*
X82571428Y-116678571D01*
X82952381Y-116678571D01*
X83047619Y-116750000D01*
X83095238Y-116821429D01*
X83142857Y-116964286D01*
X83142857Y-117178571D01*
X83095238Y-117321429D01*
X83047619Y-117392857D01*
X82952381Y-117464286D01*
X82571428Y-117464286D01*
X83428571Y-116678571D02*
X84000000Y-116678571D01*
X83714285Y-118178571D02*
X83714285Y-116678571D01*
X84285714Y-118107143D02*
X84428571Y-118178571D01*
X84666667Y-118178571D01*
X84761905Y-118107143D01*
X84809524Y-118035714D01*
X84857143Y-117892857D01*
X84857143Y-117750000D01*
X84809524Y-117607143D01*
X84761905Y-117535714D01*
X84666667Y-117464286D01*
X84476190Y-117392857D01*
X84380952Y-117321429D01*
X84333333Y-117250000D01*
X84285714Y-117107143D01*
X84285714Y-116964286D01*
X84333333Y-116821429D01*
X84380952Y-116750000D01*
X84476190Y-116678571D01*
X84714286Y-116678571D01*
X84857143Y-116750000D01*
X85238095Y-118107143D02*
X85380952Y-118178571D01*
X85619048Y-118178571D01*
X85714286Y-118107143D01*
X85761905Y-118035714D01*
X85809524Y-117892857D01*
X85809524Y-117750000D01*
X85761905Y-117607143D01*
X85714286Y-117535714D01*
X85619048Y-117464286D01*
X85428571Y-117392857D01*
X85333333Y-117321429D01*
X85285714Y-117250000D01*
X85238095Y-117107143D01*
X85238095Y-116964286D01*
X85285714Y-116821429D01*
X85333333Y-116750000D01*
X85428571Y-116678571D01*
X85666667Y-116678571D01*
X85809524Y-116750000D01*
X87571429Y-118178571D02*
X87238095Y-117464286D01*
X87000000Y-118178571D02*
X87000000Y-116678571D01*
X87380953Y-116678571D01*
X87476191Y-116750000D01*
X87523810Y-116821429D01*
X87571429Y-116964286D01*
X87571429Y-117178571D01*
X87523810Y-117321429D01*
X87476191Y-117392857D01*
X87380953Y-117464286D01*
X87000000Y-117464286D01*
X88190476Y-116678571D02*
X88285715Y-116678571D01*
X88380953Y-116750000D01*
X88428572Y-116821429D01*
X88476191Y-116964286D01*
X88523810Y-117250000D01*
X88523810Y-117607143D01*
X88476191Y-117892857D01*
X88428572Y-118035714D01*
X88380953Y-118107143D01*
X88285715Y-118178571D01*
X88190476Y-118178571D01*
X88095238Y-118107143D01*
X88047619Y-118035714D01*
X88000000Y-117892857D01*
X87952381Y-117607143D01*
X87952381Y-117250000D01*
X88000000Y-116964286D01*
X88047619Y-116821429D01*
X88095238Y-116750000D01*
X88190476Y-116678571D01*
X88857143Y-116678571D02*
X89523810Y-116678571D01*
X89095238Y-118178571D01*
D10*
X100500000Y-57750000D02*
X100442857Y-57816666D01*
X100442857Y-57916666D01*
X100500000Y-58016666D01*
X100614286Y-58083333D01*
X100728571Y-58116666D01*
X100957143Y-58150000D01*
X101128571Y-58150000D01*
X101357143Y-58116666D01*
X101471429Y-58083333D01*
X101585714Y-58016666D01*
X101642857Y-57916666D01*
X101642857Y-57850000D01*
X101585714Y-57750000D01*
X101528571Y-57716666D01*
X101128571Y-57716666D01*
X101128571Y-57850000D01*
X100842857Y-57416666D02*
X101642857Y-57416666D01*
X100957143Y-57416666D02*
X100900000Y-57383333D01*
X100842857Y-57316666D01*
X100842857Y-57216666D01*
X100900000Y-57150000D01*
X101014286Y-57116666D01*
X101642857Y-57116666D01*
X101642857Y-56483333D02*
X100442857Y-56483333D01*
X101585714Y-56483333D02*
X101642857Y-56550000D01*
X101642857Y-56683333D01*
X101585714Y-56750000D01*
X101528571Y-56783333D01*
X101414286Y-56816667D01*
X101071429Y-56816667D01*
X100957143Y-56783333D01*
X100900000Y-56750000D01*
X100842857Y-56683333D01*
X100842857Y-56550000D01*
X100900000Y-56483333D01*
X101642857Y-52033334D02*
X101642857Y-52433334D01*
X101642857Y-52233334D02*
X100442857Y-52233334D01*
X100614286Y-52300000D01*
X100728571Y-52366667D01*
X100785714Y-52433334D01*
X100557143Y-51766667D02*
X100500000Y-51733333D01*
X100442857Y-51666667D01*
X100442857Y-51500000D01*
X100500000Y-51433333D01*
X100557143Y-51400000D01*
X100671429Y-51366667D01*
X100785714Y-51366667D01*
X100957143Y-51400000D01*
X101642857Y-51800000D01*
X101642857Y-51366667D01*
X100442857Y-51166666D02*
X101642857Y-50933333D01*
X100442857Y-50700000D01*
X101200000Y-53600000D02*
X101200000Y-52600000D01*
X101200000Y-55200000D02*
X101200000Y-56200000D01*
X101700000Y-54100000D02*
G75*
G03X101700000Y-54100000I-500000J0D01*
G74*
G01*
X100200533Y-53798229D02*
G75*
G03X102200000Y-53800000I999467J-301771D01*
G74*
G01*
D12*
X116000000Y-50000000D02*
X54000000Y-50000000D01*
X120000000Y-116000000D02*
X120000000Y-54000000D01*
X54000000Y-120000000D02*
X116000000Y-120000000D01*
X50000000Y-54000000D02*
X50000000Y-116000000D01*
D14*
X65800000Y-57000000D02*
X65800000Y-55500000D01*
X59800000Y-57000000D02*
X59800000Y-55500000D01*
X65800000Y-51000000D02*
X65800000Y-52500000D01*
X59800000Y-51000000D02*
X59800000Y-52500000D01*
X59800000Y-57000000D02*
X65800000Y-57000000D01*
X65800000Y-51000000D02*
X59800000Y-51000000D01*
D15*
X84283000Y-107260000D02*
X82886000Y-107260000D01*
X84283000Y-109800000D02*
X82886000Y-109800000D01*
X84283000Y-112340000D02*
X82886000Y-112340000D01*
X99878472Y-109800000D02*
G75*
G03X99878472Y-109800000I-2514472J0D01*
G74*
G01*
X92792000Y-115134000D02*
X100793000Y-115134000D01*
X100793000Y-115134000D02*
X100793000Y-104466000D01*
X100793000Y-104466000D02*
X92792000Y-104466000D01*
X84283000Y-115134000D02*
X92792000Y-115134000D01*
X92792000Y-115134000D02*
X92792000Y-104466000D01*
X92792000Y-104466000D02*
X84283000Y-104466000D01*
X84283000Y-109800000D02*
X84283000Y-104466000D01*
X84283000Y-109800000D02*
X84283000Y-115134000D01*
D16*
X115661000Y-108195000D02*
X114772000Y-108195000D01*
X115534000Y-109211000D02*
X117566000Y-109211000D01*
X117566000Y-109211000D02*
X117566000Y-109084000D01*
X117566000Y-109084000D02*
X115534000Y-109084000D01*
X118074000Y-108957000D02*
X115026000Y-108957000D01*
X119090000Y-106925000D02*
G75*
G03X119090000Y-106925000I-2540000J0D01*
G74*
G01*
X108195000Y-115114000D02*
X108195000Y-116003000D01*
X109211000Y-115241000D02*
X109211000Y-113209000D01*
X109211000Y-113209000D02*
X109084000Y-113209000D01*
X109084000Y-113209000D02*
X109084000Y-115241000D01*
X108957000Y-112701000D02*
X108957000Y-115749000D01*
X109465000Y-114225000D02*
G75*
G03X109465000Y-114225000I-2540000J0D01*
G74*
G01*
D15*
X101249420Y-99601020D02*
X92750580Y-99601020D01*
X92750580Y-99601020D02*
X92750580Y-103598980D01*
X92750580Y-103598980D02*
X101249420Y-103598980D01*
X101249420Y-103598980D02*
X101249420Y-99601020D01*
D14*
X112700000Y-60700000D02*
X112700000Y-59800000D01*
X112700000Y-59800000D02*
X113500000Y-59800000D01*
X115700000Y-60700000D02*
X115700000Y-59800000D01*
X115700000Y-59800000D02*
X114900000Y-59800000D01*
X114500000Y-61200000D02*
X113900000Y-61200000D01*
X77400000Y-92400000D02*
X78300000Y-92400000D01*
X78300000Y-92400000D02*
X78300000Y-93200000D01*
X77400000Y-95400000D02*
X78300000Y-95400000D01*
X78300000Y-95400000D02*
X78300000Y-94600000D01*
X76900000Y-94200000D02*
X76900000Y-93600000D01*
X88800000Y-92400000D02*
X89700000Y-92400000D01*
X89700000Y-92400000D02*
X89700000Y-93200000D01*
X88800000Y-95400000D02*
X89700000Y-95400000D01*
X89700000Y-95400000D02*
X89700000Y-94600000D01*
X88300000Y-94200000D02*
X88300000Y-93600000D01*
X94900000Y-95400000D02*
X94000000Y-95400000D01*
X94000000Y-95400000D02*
X94000000Y-94600000D01*
X94900000Y-92400000D02*
X94000000Y-92400000D01*
X94000000Y-92400000D02*
X94000000Y-93200000D01*
X95400000Y-93600000D02*
X95400000Y-94200000D01*
X80100000Y-77600000D02*
X79200000Y-77600000D01*
X79200000Y-77600000D02*
X79200000Y-76800000D01*
X80100000Y-74600000D02*
X79200000Y-74600000D01*
X79200000Y-74600000D02*
X79200000Y-75400000D01*
X80600000Y-75800000D02*
X80600000Y-76400000D01*
X103660000Y-101300000D02*
X102760000Y-101300000D01*
X102760000Y-101300000D02*
X102760000Y-100500000D01*
X103660000Y-98300000D02*
X102760000Y-98300000D01*
X102760000Y-98300000D02*
X102760000Y-99100000D01*
X104160000Y-99500000D02*
X104160000Y-100100000D01*
X73800000Y-57000000D02*
X73800000Y-55500000D01*
X67800000Y-57000000D02*
X67800000Y-55500000D01*
X73800000Y-51000000D02*
X73800000Y-52500000D01*
X67800000Y-51000000D02*
X67800000Y-52500000D01*
X67800000Y-57000000D02*
X73800000Y-57000000D01*
X73800000Y-51000000D02*
X67800000Y-51000000D01*
D17*
X87267000Y-53772000D02*
X87267000Y-53645000D01*
X87267000Y-53645000D02*
X81933000Y-53645000D01*
X81933000Y-57455000D02*
X87267000Y-57455000D01*
X87267000Y-57455000D02*
X87267000Y-53772000D01*
X87267000Y-56058000D02*
X86759000Y-56058000D01*
X86759000Y-56058000D02*
X86759000Y-55042000D01*
X86759000Y-55042000D02*
X87267000Y-55042000D01*
X81933000Y-57455000D02*
X81933000Y-53645000D01*
D16*
X68955000Y-114813000D02*
X68955000Y-109987000D01*
X68574000Y-111257000D02*
X68574000Y-113543000D01*
X78494267Y-112400000D02*
G75*
G03X78494267Y-112400000I-5094267J0D01*
G74*
G01*
X68955000Y-110368000D02*
X68955000Y-114432000D01*
X68955000Y-114432000D02*
X68828000Y-114051000D01*
X68828000Y-114051000D02*
X68828000Y-110749000D01*
X68828000Y-110749000D02*
X68955000Y-110368000D01*
X69463000Y-111511000D02*
X69463000Y-110622000D01*
X68447000Y-111384000D02*
X68447000Y-113416000D01*
X68574000Y-113416000D02*
X68574000Y-111384000D01*
X68701000Y-113924000D02*
X68701000Y-110876000D01*
X70730000Y-61960000D02*
X70730000Y-69580000D01*
X73270000Y-61960000D02*
X73270000Y-69580000D01*
X73270000Y-59420000D02*
X73270000Y-61960000D01*
X70730000Y-69580000D02*
X73270000Y-69580000D01*
X73270000Y-61960000D02*
X70730000Y-61960000D01*
X73270000Y-59420000D02*
X70730000Y-59420000D01*
X70730000Y-59420000D02*
X70730000Y-61960000D01*
D17*
X110501000Y-106553000D02*
X113676000Y-106553000D01*
X113676000Y-106553000D02*
X113676000Y-104775000D01*
X113676000Y-104775000D02*
X110501000Y-104775000D01*
X110501000Y-111125000D02*
X113676000Y-111125000D01*
X113676000Y-111125000D02*
X113676000Y-109347000D01*
X113676000Y-109347000D02*
X110501000Y-109347000D01*
X104405000Y-104521000D02*
X110501000Y-104521000D01*
X110501000Y-104521000D02*
X110501000Y-111379000D01*
X110501000Y-111379000D02*
X102627000Y-111379000D01*
X102500000Y-111379000D02*
X102500000Y-104521000D01*
X102627000Y-104521000D02*
X104405000Y-104521000D01*
D14*
X120000000Y-77500000D02*
X120000000Y-101500000D01*
X120000000Y-74350000D02*
X120000000Y-66650000D01*
X120000000Y-66650000D02*
X110800000Y-66650000D01*
X110800000Y-66650000D02*
X110800000Y-74350000D01*
X110800000Y-74350000D02*
X120000000Y-74350000D01*
X111500000Y-64500000D02*
X111500000Y-50000000D01*
X111500000Y-50000000D02*
X102500000Y-50000000D01*
X102500000Y-50000000D02*
X102500000Y-64500000D01*
X102500000Y-64500000D02*
X111500000Y-64500000D01*
X50000000Y-99000000D02*
X64000000Y-99000000D01*
X64000000Y-99000000D02*
X64000000Y-110500000D01*
X64000000Y-110500000D02*
X50000000Y-110500000D01*
X50000000Y-110500000D02*
X50000000Y-99000000D01*
D10*
X82400000Y-63920000D02*
X81700000Y-63920000D01*
X81700000Y-63920000D02*
X81700000Y-64620000D01*
X81700000Y-64620000D02*
X82400000Y-63920000D01*
D16*
X99840000Y-71160000D02*
X99840000Y-50840000D01*
X94760000Y-53380000D02*
X94760000Y-71160000D01*
X99840000Y-71160000D02*
X94760000Y-71160000D01*
X99840000Y-50840000D02*
X97300000Y-50840000D01*
X94760000Y-50840000D02*
X94760000Y-53380000D01*
X97300000Y-50840000D02*
X97300000Y-53380000D01*
X97300000Y-53380000D02*
X94760000Y-53380000D01*
X94760000Y-50840000D02*
X97300000Y-50840000D01*
D14*
X69990000Y-78600000D02*
X100010000Y-78600000D01*
X100010000Y-78600000D02*
X100010000Y-91400000D01*
X100010000Y-91400000D02*
X69990000Y-91400000D01*
X69990000Y-78600000D02*
X69990000Y-91400000D01*
X61930000Y-111090000D02*
X64030000Y-111090000D01*
X109350000Y-101800000D02*
X109350000Y-103900000D01*
D16*
X66030000Y-100511000D02*
X66030000Y-99622000D01*
X65014000Y-100384000D02*
X65014000Y-102416000D01*
X65014000Y-102416000D02*
X65141000Y-102416000D01*
X65141000Y-102416000D02*
X65141000Y-100384000D01*
X65268000Y-102924000D02*
X65268000Y-99876000D01*
X69840000Y-101400000D02*
G75*
G03X69840000Y-101400000I-2540000J0D01*
G74*
G01*
D14*
X71600000Y-103200000D02*
X71600000Y-100200000D01*
X71600000Y-100200000D02*
X75000000Y-100200000D01*
X75000000Y-100200000D02*
X75000000Y-103200000D01*
X75000000Y-103200000D02*
X71600000Y-103200000D01*
D17*
X74683686Y-102699160D02*
G75*
G03X74683686Y-102699160I-281986J0D01*
G74*
G01*
D14*
X76300000Y-65200000D02*
X76300000Y-56400000D01*
X76300000Y-56400000D02*
X79500000Y-56400000D01*
X79500000Y-56400000D02*
X79500000Y-65200000D01*
X79500000Y-65200000D02*
X76300000Y-65200000D01*
X88800000Y-74600000D02*
X89700000Y-74600000D01*
X89700000Y-74600000D02*
X89700000Y-75400000D01*
X88800000Y-77600000D02*
X89700000Y-77600000D01*
X89700000Y-77600000D02*
X89700000Y-76800000D01*
X88300000Y-76400000D02*
X88300000Y-75800000D01*
X92500000Y-74600000D02*
X93400000Y-74600000D01*
X93400000Y-74600000D02*
X93400000Y-75400000D01*
X92500000Y-77600000D02*
X93400000Y-77600000D01*
X93400000Y-77600000D02*
X93400000Y-76800000D01*
X92000000Y-76400000D02*
X92000000Y-75800000D01*
D16*
X79839000Y-97460000D02*
X80728000Y-97460000D01*
X79966000Y-96444000D02*
X77934000Y-96444000D01*
X77934000Y-96444000D02*
X77934000Y-96571000D01*
X77934000Y-96571000D02*
X79966000Y-96571000D01*
X77426000Y-96698000D02*
X80474000Y-96698000D01*
X81490000Y-98730000D02*
G75*
G03X81490000Y-98730000I-2540000J0D01*
G74*
G01*
D17*
X89328000Y-103177000D02*
X89455000Y-103177000D01*
X89455000Y-103177000D02*
X89455000Y-97843000D01*
X85645000Y-97843000D02*
X85645000Y-103177000D01*
X85645000Y-103177000D02*
X89328000Y-103177000D01*
X87042000Y-103177000D02*
X87042000Y-102669000D01*
X87042000Y-102669000D02*
X88058000Y-102669000D01*
X88058000Y-102669000D02*
X88058000Y-103177000D01*
X85645000Y-97843000D02*
X89455000Y-97843000D01*
D10*
X89600000Y-55300000D02*
G75*
G03X88400000Y-56500000I0J-1200000D01*
G74*
G01*
X88400000Y-56500000D02*
G75*
G03X89600000Y-57700000I1200000J0D01*
G74*
G01*
X89600000Y-51800000D02*
G75*
G03X88400000Y-53000000I0J-1200000D01*
G74*
G01*
X88400000Y-53000000D02*
G75*
G03X89600000Y-54200000I1200000J0D01*
G74*
G01*
X61330000Y-70030000D02*
G75*
G03X60130000Y-71230000I0J-1200000D01*
G74*
G01*
X60130000Y-71230000D02*
G75*
G03X61330000Y-72430000I1200000J0D01*
G74*
G01*
X54630000Y-70030000D02*
G75*
G03X53430000Y-71230000I0J-1200000D01*
G74*
G01*
X53430000Y-71230000D02*
G75*
G03X54630000Y-72430000I1200000J0D01*
G74*
G01*
X82500000Y-103700000D02*
G75*
G03X83700000Y-102500000I0J1200000D01*
G74*
G01*
X83700000Y-102500000D02*
G75*
G03X82500000Y-101300000I-1200000J0D01*
G74*
G01*
X92770000Y-96710000D02*
G75*
G03X91570000Y-97910000I0J-1200000D01*
G74*
G01*
X91570000Y-97910000D02*
G75*
G03X92770000Y-99110000I1200000J0D01*
G74*
G01*
X71709000Y-95100000D02*
G75*
G03X72909000Y-93900000I0J1200000D01*
G74*
G01*
X72909000Y-93900000D02*
G75*
G03X71709000Y-92700000I-1200000J0D01*
G74*
G01*
X68000000Y-106200000D02*
G75*
G03X66800000Y-105000000I-1200000J0D01*
G74*
G01*
X66800000Y-105000000D02*
G75*
G03X65600000Y-106200000I0J-1200000D01*
G74*
G01*
X103850000Y-113525000D02*
G75*
G03X102650000Y-112325000I-1200000J0D01*
G74*
G01*
X102650000Y-112325000D02*
G75*
G03X101450000Y-113525000I0J-1200000D01*
G74*
G01*
X107200000Y-98900000D02*
G75*
G03X106000000Y-100100000I0J-1200000D01*
G74*
G01*
X106000000Y-100100000D02*
G75*
G03X107200000Y-101300000I1200000J0D01*
G74*
G01*
D12*
G36*
X108552454Y-74301585D02*
X108544228Y-74312853D01*
X108520580Y-74338289D01*
X108483056Y-74376398D01*
X108433199Y-74425684D01*
X108372555Y-74484651D01*
X108302669Y-74551806D01*
X108225086Y-74625651D01*
X108141350Y-74704694D01*
X108053007Y-74787437D01*
X107987537Y-74848350D01*
X107911269Y-74919109D01*
X107853748Y-74868035D01*
X107741637Y-74776797D01*
X107607777Y-74682557D01*
X107453244Y-74585810D01*
X107279113Y-74487051D01*
X107086461Y-74386776D01*
X106876363Y-74285478D01*
X106649896Y-74183654D01*
X106408134Y-74081797D01*
X106152154Y-73980403D01*
X105883031Y-73879967D01*
X105601841Y-73780984D01*
X105309661Y-73683948D01*
X105212542Y-73652922D01*
X105141012Y-73630636D01*
X105055651Y-73604611D01*
X104959905Y-73575850D01*
X104857226Y-73545355D01*
X104751060Y-73514130D01*
X104644858Y-73483178D01*
X104542069Y-73453503D01*
X104446140Y-73426107D01*
X104360522Y-73401994D01*
X104288663Y-73382167D01*
X104234012Y-73367630D01*
X104217137Y-73363372D01*
X104199985Y-73359497D01*
X104183466Y-73357304D01*
X104164804Y-73357373D01*
X104141222Y-73360281D01*
X104109944Y-73366607D01*
X104068192Y-73376932D01*
X104013190Y-73391833D01*
X103942161Y-73411889D01*
X103852328Y-73437679D01*
X103830364Y-73444008D01*
X103543127Y-73529260D01*
X103266409Y-73616330D01*
X103001602Y-73704679D01*
X102750100Y-73793764D01*
X102513294Y-73883047D01*
X102292577Y-73971987D01*
X102089342Y-74060043D01*
X101904980Y-74146675D01*
X101740884Y-74231342D01*
X101613101Y-74304552D01*
X101546588Y-74345484D01*
X101495031Y-74378995D01*
X101453221Y-74408916D01*
X101415952Y-74439080D01*
X101378015Y-74473316D01*
X101358632Y-74491750D01*
X101294128Y-74553780D01*
X101202769Y-74491204D01*
X101152330Y-74460287D01*
X101081083Y-74422253D01*
X100990023Y-74377600D01*
X100880141Y-74326823D01*
X100817000Y-74298651D01*
X100739946Y-74264472D01*
X100669722Y-74233014D01*
X100609133Y-74205558D01*
X100560982Y-74183386D01*
X100528073Y-74167777D01*
X100513209Y-74160013D01*
X100512802Y-74159698D01*
X100511423Y-74143779D01*
X100522408Y-74113797D01*
X100543646Y-74073680D01*
X100573024Y-74027354D01*
X100608428Y-73978744D01*
X100614029Y-73971622D01*
X100657123Y-73922311D01*
X100713448Y-73864941D01*
X100777356Y-73804743D01*
X100843195Y-73746949D01*
X100905316Y-73696792D01*
X100932455Y-73676752D01*
X101040238Y-73604616D01*
X101166028Y-73527938D01*
X101305741Y-73448904D01*
X101455295Y-73369702D01*
X101610607Y-73292518D01*
X101767595Y-73219539D01*
X101867637Y-73175805D01*
X101927634Y-73150700D01*
X101997316Y-73122256D01*
X102073593Y-73091663D01*
X102153376Y-73060112D01*
X102233578Y-73028794D01*
X102311110Y-72998898D01*
X102382882Y-72971615D01*
X102445807Y-72948135D01*
X102496796Y-72929649D01*
X102532760Y-72917348D01*
X102550611Y-72912421D01*
X102551089Y-72912384D01*
X102544453Y-72908651D01*
X102518468Y-72898379D01*
X102475638Y-72882477D01*
X102418471Y-72861856D01*
X102349471Y-72837426D01*
X102271146Y-72810097D01*
X102237091Y-72798325D01*
X102092295Y-72748084D01*
X101965528Y-72703313D01*
X101852814Y-72662487D01*
X101750176Y-72624081D01*
X101653638Y-72586569D01*
X101559224Y-72548427D01*
X101462957Y-72508129D01*
X101360861Y-72464150D01*
X101325000Y-72448477D01*
X101223873Y-72402922D01*
X101121484Y-72354545D01*
X101019924Y-72304520D01*
X100921287Y-72254021D01*
X100827664Y-72204224D01*
X100741148Y-72156303D01*
X100663830Y-72111434D01*
X100597802Y-72070791D01*
X100545158Y-72035548D01*
X100507988Y-72006882D01*
X100488386Y-71985966D01*
X100485991Y-71977325D01*
X100493855Y-71963320D01*
X100513577Y-71933820D01*
X100543310Y-71891320D01*
X100581204Y-71838312D01*
X100625409Y-71777290D01*
X100674076Y-71710748D01*
X100725356Y-71641179D01*
X100777399Y-71571077D01*
X100828356Y-71502936D01*
X100876378Y-71439248D01*
X100919615Y-71382507D01*
X100956218Y-71335207D01*
X100984338Y-71299842D01*
X101002125Y-71278904D01*
X101007500Y-71274163D01*
X101021929Y-71280050D01*
X101050216Y-71295825D01*
X101087067Y-71318477D01*
X101099864Y-71326725D01*
X101143287Y-71352872D01*
X101204282Y-71386545D01*
X101279272Y-71425995D01*
X101364682Y-71469475D01*
X101456934Y-71515237D01*
X101552455Y-71561534D01*
X101647666Y-71606618D01*
X101738993Y-71648742D01*
X101822859Y-71686159D01*
X101895689Y-71717121D01*
X101913819Y-71724476D01*
X102150527Y-71816230D01*
X102396278Y-71905440D01*
X102653333Y-71992823D01*
X102923955Y-72079096D01*
X103210407Y-72164977D01*
X103514950Y-72251183D01*
X103839847Y-72338431D01*
X103899154Y-72353909D01*
X104158444Y-72421303D01*
X104303245Y-72383348D01*
X104525776Y-72326045D01*
X104763675Y-72266677D01*
X105013285Y-72206067D01*
X105270947Y-72145039D01*
X105533002Y-72084418D01*
X105795794Y-72025028D01*
X106055664Y-71967692D01*
X106308955Y-71913236D01*
X106552007Y-71862482D01*
X106781163Y-71816256D01*
X106992766Y-71775381D01*
X107045773Y-71765488D01*
X107162680Y-71744223D01*
X107282955Y-71723037D01*
X107404412Y-71702261D01*
X107524866Y-71682229D01*
X107642131Y-71663270D01*
X107754021Y-71645717D01*
X107858351Y-71629902D01*
X107952934Y-71616156D01*
X108035585Y-71604811D01*
X108104118Y-71596199D01*
X108156347Y-71590651D01*
X108190087Y-71588499D01*
X108202997Y-71589876D01*
X108205858Y-71602437D01*
X108210909Y-71634798D01*
X108217783Y-71683907D01*
X108226112Y-71746709D01*
X108235529Y-71820150D01*
X108245667Y-71901178D01*
X108256157Y-71986737D01*
X108266633Y-72073774D01*
X108276726Y-72159236D01*
X108286069Y-72240068D01*
X108294294Y-72313217D01*
X108301034Y-72375629D01*
X108305921Y-72424251D01*
X108308588Y-72456028D01*
X108308688Y-72467888D01*
X108295999Y-72471145D01*
X108264915Y-72476477D01*
X108219964Y-72483172D01*
X108165672Y-72490521D01*
X108159674Y-72491293D01*
X108020247Y-72510402D01*
X107861803Y-72534304D01*
X107687779Y-72562397D01*
X107501609Y-72594080D01*
X107306730Y-72628749D01*
X107106576Y-72665804D01*
X106904583Y-72704642D01*
X106704187Y-72744661D01*
X106647455Y-72756279D01*
X106539897Y-72778580D01*
X106432697Y-72801077D01*
X106328419Y-72823211D01*
X106229626Y-72844422D01*
X106138881Y-72864150D01*
X106058748Y-72881835D01*
X105991789Y-72896917D01*
X105940568Y-72908837D01*
X105907648Y-72917034D01*
X105897000Y-72920205D01*
X105901372Y-72925972D01*
X105924506Y-72937734D01*
X105963272Y-72954144D01*
X106014541Y-72973855D01*
X106058637Y-72989757D01*
X106357452Y-73098255D01*
X106644525Y-73209412D01*
X106918457Y-73322566D01*
X107177849Y-73437055D01*
X107421304Y-73552217D01*
X107647421Y-73667391D01*
X107854802Y-73781914D01*
X108042050Y-73895125D01*
X108207764Y-74006363D01*
X108208635Y-74006984D01*
X108262275Y-74046470D01*
X108318798Y-74090234D01*
X108375237Y-74135733D01*
X108428620Y-74180421D01*
X108475978Y-74221753D01*
X108514341Y-74257186D01*
X108540740Y-74284174D01*
X108552204Y-74300173D01*
X108552454Y-74301585D01*
X108552454Y-74301585D01*
X108552454Y-74301585D01*
G37*
X108552454Y-74301585D02*
X108544228Y-74312853D01*
X108520580Y-74338289D01*
X108483056Y-74376398D01*
X108433199Y-74425684D01*
X108372555Y-74484651D01*
X108302669Y-74551806D01*
X108225086Y-74625651D01*
X108141350Y-74704694D01*
X108053007Y-74787437D01*
X107987537Y-74848350D01*
X107911269Y-74919109D01*
X107853748Y-74868035D01*
X107741637Y-74776797D01*
X107607777Y-74682557D01*
X107453244Y-74585810D01*
X107279113Y-74487051D01*
X107086461Y-74386776D01*
X106876363Y-74285478D01*
X106649896Y-74183654D01*
X106408134Y-74081797D01*
X106152154Y-73980403D01*
X105883031Y-73879967D01*
X105601841Y-73780984D01*
X105309661Y-73683948D01*
X105212542Y-73652922D01*
X105141012Y-73630636D01*
X105055651Y-73604611D01*
X104959905Y-73575850D01*
X104857226Y-73545355D01*
X104751060Y-73514130D01*
X104644858Y-73483178D01*
X104542069Y-73453503D01*
X104446140Y-73426107D01*
X104360522Y-73401994D01*
X104288663Y-73382167D01*
X104234012Y-73367630D01*
X104217137Y-73363372D01*
X104199985Y-73359497D01*
X104183466Y-73357304D01*
X104164804Y-73357373D01*
X104141222Y-73360281D01*
X104109944Y-73366607D01*
X104068192Y-73376932D01*
X104013190Y-73391833D01*
X103942161Y-73411889D01*
X103852328Y-73437679D01*
X103830364Y-73444008D01*
X103543127Y-73529260D01*
X103266409Y-73616330D01*
X103001602Y-73704679D01*
X102750100Y-73793764D01*
X102513294Y-73883047D01*
X102292577Y-73971987D01*
X102089342Y-74060043D01*
X101904980Y-74146675D01*
X101740884Y-74231342D01*
X101613101Y-74304552D01*
X101546588Y-74345484D01*
X101495031Y-74378995D01*
X101453221Y-74408916D01*
X101415952Y-74439080D01*
X101378015Y-74473316D01*
X101358632Y-74491750D01*
X101294128Y-74553780D01*
X101202769Y-74491204D01*
X101152330Y-74460287D01*
X101081083Y-74422253D01*
X100990023Y-74377600D01*
X100880141Y-74326823D01*
X100817000Y-74298651D01*
X100739946Y-74264472D01*
X100669722Y-74233014D01*
X100609133Y-74205558D01*
X100560982Y-74183386D01*
X100528073Y-74167777D01*
X100513209Y-74160013D01*
X100512802Y-74159698D01*
X100511423Y-74143779D01*
X100522408Y-74113797D01*
X100543646Y-74073680D01*
X100573024Y-74027354D01*
X100608428Y-73978744D01*
X100614029Y-73971622D01*
X100657123Y-73922311D01*
X100713448Y-73864941D01*
X100777356Y-73804743D01*
X100843195Y-73746949D01*
X100905316Y-73696792D01*
X100932455Y-73676752D01*
X101040238Y-73604616D01*
X101166028Y-73527938D01*
X101305741Y-73448904D01*
X101455295Y-73369702D01*
X101610607Y-73292518D01*
X101767595Y-73219539D01*
X101867637Y-73175805D01*
X101927634Y-73150700D01*
X101997316Y-73122256D01*
X102073593Y-73091663D01*
X102153376Y-73060112D01*
X102233578Y-73028794D01*
X102311110Y-72998898D01*
X102382882Y-72971615D01*
X102445807Y-72948135D01*
X102496796Y-72929649D01*
X102532760Y-72917348D01*
X102550611Y-72912421D01*
X102551089Y-72912384D01*
X102544453Y-72908651D01*
X102518468Y-72898379D01*
X102475638Y-72882477D01*
X102418471Y-72861856D01*
X102349471Y-72837426D01*
X102271146Y-72810097D01*
X102237091Y-72798325D01*
X102092295Y-72748084D01*
X101965528Y-72703313D01*
X101852814Y-72662487D01*
X101750176Y-72624081D01*
X101653638Y-72586569D01*
X101559224Y-72548427D01*
X101462957Y-72508129D01*
X101360861Y-72464150D01*
X101325000Y-72448477D01*
X101223873Y-72402922D01*
X101121484Y-72354545D01*
X101019924Y-72304520D01*
X100921287Y-72254021D01*
X100827664Y-72204224D01*
X100741148Y-72156303D01*
X100663830Y-72111434D01*
X100597802Y-72070791D01*
X100545158Y-72035548D01*
X100507988Y-72006882D01*
X100488386Y-71985966D01*
X100485991Y-71977325D01*
X100493855Y-71963320D01*
X100513577Y-71933820D01*
X100543310Y-71891320D01*
X100581204Y-71838312D01*
X100625409Y-71777290D01*
X100674076Y-71710748D01*
X100725356Y-71641179D01*
X100777399Y-71571077D01*
X100828356Y-71502936D01*
X100876378Y-71439248D01*
X100919615Y-71382507D01*
X100956218Y-71335207D01*
X100984338Y-71299842D01*
X101002125Y-71278904D01*
X101007500Y-71274163D01*
X101021929Y-71280050D01*
X101050216Y-71295825D01*
X101087067Y-71318477D01*
X101099864Y-71326725D01*
X101143287Y-71352872D01*
X101204282Y-71386545D01*
X101279272Y-71425995D01*
X101364682Y-71469475D01*
X101456934Y-71515237D01*
X101552455Y-71561534D01*
X101647666Y-71606618D01*
X101738993Y-71648742D01*
X101822859Y-71686159D01*
X101895689Y-71717121D01*
X101913819Y-71724476D01*
X102150527Y-71816230D01*
X102396278Y-71905440D01*
X102653333Y-71992823D01*
X102923955Y-72079096D01*
X103210407Y-72164977D01*
X103514950Y-72251183D01*
X103839847Y-72338431D01*
X103899154Y-72353909D01*
X104158444Y-72421303D01*
X104303245Y-72383348D01*
X104525776Y-72326045D01*
X104763675Y-72266677D01*
X105013285Y-72206067D01*
X105270947Y-72145039D01*
X105533002Y-72084418D01*
X105795794Y-72025028D01*
X106055664Y-71967692D01*
X106308955Y-71913236D01*
X106552007Y-71862482D01*
X106781163Y-71816256D01*
X106992766Y-71775381D01*
X107045773Y-71765488D01*
X107162680Y-71744223D01*
X107282955Y-71723037D01*
X107404412Y-71702261D01*
X107524866Y-71682229D01*
X107642131Y-71663270D01*
X107754021Y-71645717D01*
X107858351Y-71629902D01*
X107952934Y-71616156D01*
X108035585Y-71604811D01*
X108104118Y-71596199D01*
X108156347Y-71590651D01*
X108190087Y-71588499D01*
X108202997Y-71589876D01*
X108205858Y-71602437D01*
X108210909Y-71634798D01*
X108217783Y-71683907D01*
X108226112Y-71746709D01*
X108235529Y-71820150D01*
X108245667Y-71901178D01*
X108256157Y-71986737D01*
X108266633Y-72073774D01*
X108276726Y-72159236D01*
X108286069Y-72240068D01*
X108294294Y-72313217D01*
X108301034Y-72375629D01*
X108305921Y-72424251D01*
X108308588Y-72456028D01*
X108308688Y-72467888D01*
X108295999Y-72471145D01*
X108264915Y-72476477D01*
X108219964Y-72483172D01*
X108165672Y-72490521D01*
X108159674Y-72491293D01*
X108020247Y-72510402D01*
X107861803Y-72534304D01*
X107687779Y-72562397D01*
X107501609Y-72594080D01*
X107306730Y-72628749D01*
X107106576Y-72665804D01*
X106904583Y-72704642D01*
X106704187Y-72744661D01*
X106647455Y-72756279D01*
X106539897Y-72778580D01*
X106432697Y-72801077D01*
X106328419Y-72823211D01*
X106229626Y-72844422D01*
X106138881Y-72864150D01*
X106058748Y-72881835D01*
X105991789Y-72896917D01*
X105940568Y-72908837D01*
X105907648Y-72917034D01*
X105897000Y-72920205D01*
X105901372Y-72925972D01*
X105924506Y-72937734D01*
X105963272Y-72954144D01*
X106014541Y-72973855D01*
X106058637Y-72989757D01*
X106357452Y-73098255D01*
X106644525Y-73209412D01*
X106918457Y-73322566D01*
X107177849Y-73437055D01*
X107421304Y-73552217D01*
X107647421Y-73667391D01*
X107854802Y-73781914D01*
X108042050Y-73895125D01*
X108207764Y-74006363D01*
X108208635Y-74006984D01*
X108262275Y-74046470D01*
X108318798Y-74090234D01*
X108375237Y-74135733D01*
X108428620Y-74180421D01*
X108475978Y-74221753D01*
X108514341Y-74257186D01*
X108540740Y-74284174D01*
X108552204Y-74300173D01*
X108552454Y-74301585D01*
X108552454Y-74301585D01*
G36*
X107565319Y-69166500D02*
X107563359Y-69308197D01*
X107556914Y-69433444D01*
X107545135Y-69548595D01*
X107527173Y-69660002D01*
X107502180Y-69774020D01*
X107469307Y-69897001D01*
X107466366Y-69907228D01*
X107388427Y-70135852D01*
X107289407Y-70356724D01*
X107170298Y-70568864D01*
X107032094Y-70771293D01*
X106875790Y-70963030D01*
X106702378Y-71143096D01*
X106512852Y-71310511D01*
X106308206Y-71464295D01*
X106089434Y-71603469D01*
X105857529Y-71727053D01*
X105613485Y-71834066D01*
X105452500Y-71893029D01*
X105208962Y-71966351D01*
X104960542Y-72023304D01*
X104711263Y-72063311D01*
X104465148Y-72085793D01*
X104226218Y-72090173D01*
X104113228Y-72085550D01*
X103831949Y-72057913D01*
X103560804Y-72010475D01*
X103300373Y-71943481D01*
X103051238Y-71857180D01*
X102813979Y-71751817D01*
X102589178Y-71627640D01*
X102377416Y-71484895D01*
X102179274Y-71323830D01*
X102063592Y-71214948D01*
X101905813Y-71043573D01*
X101767042Y-70862938D01*
X101647638Y-70674353D01*
X101547959Y-70479129D01*
X101468364Y-70278576D01*
X101409211Y-70074006D01*
X101370860Y-69866728D01*
X101353668Y-69658052D01*
X101357994Y-69449291D01*
X101384197Y-69241753D01*
X101432635Y-69036750D01*
X101451252Y-68976865D01*
X101530485Y-68772061D01*
X101629869Y-68577550D01*
X101748464Y-68394231D01*
X101885328Y-68223001D01*
X102039521Y-68064756D01*
X102210100Y-67920396D01*
X102396125Y-67790816D01*
X102596655Y-67676916D01*
X102810748Y-67579591D01*
X102981773Y-67517321D01*
X103197704Y-67457676D01*
X103421041Y-67416913D01*
X103648145Y-67395171D01*
X103875377Y-67392583D01*
X104099100Y-67409287D01*
X104315673Y-67445418D01*
X104396091Y-67464464D01*
X104456025Y-67480856D01*
X104525577Y-67501459D01*
X104601752Y-67525227D01*
X104681552Y-67551114D01*
X104761979Y-67578076D01*
X104840037Y-67605065D01*
X104912728Y-67631037D01*
X104977054Y-67654945D01*
X105030019Y-67675745D01*
X105068624Y-67692390D01*
X105089874Y-67703835D01*
X105093072Y-67707619D01*
X105088966Y-67723147D01*
X105078348Y-67757175D01*
X105062238Y-67806727D01*
X105041656Y-67868825D01*
X105017619Y-67940494D01*
X104991147Y-68018756D01*
X104963259Y-68100635D01*
X104934974Y-68183154D01*
X104907310Y-68263336D01*
X104881287Y-68338205D01*
X104857923Y-68404785D01*
X104838238Y-68460098D01*
X104823251Y-68501168D01*
X104813980Y-68525018D01*
X104811638Y-68529772D01*
X104798759Y-68528752D01*
X104766913Y-68521009D01*
X104718948Y-68507388D01*
X104657713Y-68488737D01*
X104586056Y-68465903D01*
X104506824Y-68439731D01*
X104492492Y-68434905D01*
X104380291Y-68397302D01*
X104286332Y-68366746D01*
X104207111Y-68342517D01*
X104139123Y-68323899D01*
X104078865Y-68310171D01*
X104022833Y-68300617D01*
X103967522Y-68294518D01*
X103909427Y-68291156D01*
X103845045Y-68289811D01*
X103784182Y-68289714D01*
X103699235Y-68290631D01*
X103631457Y-68293067D01*
X103574949Y-68297500D01*
X103523813Y-68304410D01*
X103472150Y-68314273D01*
X103466682Y-68315450D01*
X103270203Y-68368193D01*
X103087317Y-68437911D01*
X102918888Y-68524057D01*
X102765779Y-68626087D01*
X102628854Y-68743454D01*
X102508977Y-68875612D01*
X102446578Y-68960329D01*
X102365000Y-69100325D01*
X102304923Y-69247721D01*
X102266556Y-69400976D01*
X102250111Y-69558547D01*
X102255798Y-69718892D01*
X102283829Y-69880470D01*
X102308719Y-69968909D01*
X102363619Y-70108576D01*
X102438200Y-70249048D01*
X102529658Y-70385872D01*
X102635190Y-70514592D01*
X102685667Y-70567824D01*
X102841839Y-70708845D01*
X103013257Y-70833082D01*
X103198778Y-70940016D01*
X103397254Y-71029125D01*
X103607541Y-71099888D01*
X103828494Y-71151786D01*
X104037195Y-71182109D01*
X104126871Y-71188511D01*
X104231281Y-71191105D01*
X104343728Y-71190113D01*
X104457516Y-71185755D01*
X104565947Y-71178249D01*
X104662325Y-71167817D01*
X104713591Y-71159885D01*
X104958594Y-71106325D01*
X105188749Y-71036097D01*
X105405797Y-70948598D01*
X105585273Y-70857982D01*
X105712869Y-70783325D01*
X105825457Y-70708512D01*
X105930490Y-70628026D01*
X106035422Y-70536349D01*
X106091795Y-70483028D01*
X106235939Y-70330715D01*
X106358394Y-70172978D01*
X106460299Y-70007897D01*
X106542789Y-69833548D01*
X106607000Y-69648012D01*
X106625120Y-69581051D01*
X106662098Y-69388311D01*
X106676492Y-69194012D01*
X106668653Y-68999243D01*
X106638936Y-68805094D01*
X106587693Y-68612652D01*
X106515278Y-68423006D01*
X106422045Y-68237246D01*
X106308346Y-68056459D01*
X106174535Y-67881736D01*
X106020965Y-67714164D01*
X106018454Y-67711651D01*
X105831642Y-67541175D01*
X105630669Y-67388902D01*
X105415639Y-67254877D01*
X105186657Y-67139147D01*
X104943829Y-67041757D01*
X104687258Y-66962753D01*
X104417051Y-66902182D01*
X104133311Y-66860088D01*
X104056381Y-66852086D01*
X103931639Y-66842848D01*
X103805336Y-66839051D01*
X103674344Y-66840901D01*
X103535533Y-66848605D01*
X103385775Y-66862371D01*
X103221939Y-66882404D01*
X103040896Y-66908913D01*
X102932148Y-66926445D01*
X102815130Y-66945428D01*
X102720665Y-66959852D01*
X102648673Y-66969728D01*
X102599073Y-66975067D01*
X102571784Y-66975878D01*
X102565945Y-66973908D01*
X102562492Y-66957522D01*
X102556026Y-66922105D01*
X102547043Y-66870685D01*
X102536041Y-66806291D01*
X102523517Y-66731952D01*
X102509969Y-66650695D01*
X102495893Y-66565550D01*
X102481786Y-66479545D01*
X102468146Y-66395708D01*
X102455469Y-66317069D01*
X102444254Y-66246655D01*
X102434996Y-66187496D01*
X102428194Y-66142619D01*
X102424344Y-66115054D01*
X102423725Y-66107500D01*
X102437258Y-66103636D01*
X102470602Y-66096886D01*
X102520724Y-66087734D01*
X102584592Y-66076663D01*
X102659171Y-66064157D01*
X102741430Y-66050698D01*
X102828335Y-66036770D01*
X102916854Y-66022856D01*
X103003954Y-66009441D01*
X103086601Y-65997006D01*
X103161764Y-65986037D01*
X103226408Y-65977015D01*
X103277502Y-65970425D01*
X103299273Y-65967955D01*
X103400499Y-65959737D01*
X103518596Y-65954011D01*
X103647476Y-65950780D01*
X103781053Y-65950049D01*
X103913242Y-65951821D01*
X104037956Y-65956098D01*
X104149108Y-65962885D01*
X104199819Y-65967437D01*
X104506413Y-66008181D01*
X104800166Y-66066441D01*
X105084031Y-66142892D01*
X105321108Y-66223185D01*
X105407349Y-66257605D01*
X105507181Y-66301384D01*
X105614731Y-66351634D01*
X105724125Y-66405465D01*
X105829491Y-66459985D01*
X105924956Y-66512304D01*
X106004646Y-66559534D01*
X106004854Y-66559663D01*
X106236225Y-66716711D01*
X106451890Y-66887866D01*
X106651077Y-67072075D01*
X106833017Y-67268282D01*
X106996936Y-67475432D01*
X107142066Y-67692470D01*
X107267635Y-67918341D01*
X107372871Y-68151990D01*
X107457004Y-68392362D01*
X107517448Y-68629637D01*
X107534018Y-68714149D01*
X107546455Y-68791429D01*
X107555280Y-68867322D01*
X107561014Y-68947674D01*
X107564178Y-69038331D01*
X107565295Y-69145138D01*
X107565319Y-69166500D01*
X107565319Y-69166500D01*
X107565319Y-69166500D01*
G37*
X107565319Y-69166500D02*
X107563359Y-69308197D01*
X107556914Y-69433444D01*
X107545135Y-69548595D01*
X107527173Y-69660002D01*
X107502180Y-69774020D01*
X107469307Y-69897001D01*
X107466366Y-69907228D01*
X107388427Y-70135852D01*
X107289407Y-70356724D01*
X107170298Y-70568864D01*
X107032094Y-70771293D01*
X106875790Y-70963030D01*
X106702378Y-71143096D01*
X106512852Y-71310511D01*
X106308206Y-71464295D01*
X106089434Y-71603469D01*
X105857529Y-71727053D01*
X105613485Y-71834066D01*
X105452500Y-71893029D01*
X105208962Y-71966351D01*
X104960542Y-72023304D01*
X104711263Y-72063311D01*
X104465148Y-72085793D01*
X104226218Y-72090173D01*
X104113228Y-72085550D01*
X103831949Y-72057913D01*
X103560804Y-72010475D01*
X103300373Y-71943481D01*
X103051238Y-71857180D01*
X102813979Y-71751817D01*
X102589178Y-71627640D01*
X102377416Y-71484895D01*
X102179274Y-71323830D01*
X102063592Y-71214948D01*
X101905813Y-71043573D01*
X101767042Y-70862938D01*
X101647638Y-70674353D01*
X101547959Y-70479129D01*
X101468364Y-70278576D01*
X101409211Y-70074006D01*
X101370860Y-69866728D01*
X101353668Y-69658052D01*
X101357994Y-69449291D01*
X101384197Y-69241753D01*
X101432635Y-69036750D01*
X101451252Y-68976865D01*
X101530485Y-68772061D01*
X101629869Y-68577550D01*
X101748464Y-68394231D01*
X101885328Y-68223001D01*
X102039521Y-68064756D01*
X102210100Y-67920396D01*
X102396125Y-67790816D01*
X102596655Y-67676916D01*
X102810748Y-67579591D01*
X102981773Y-67517321D01*
X103197704Y-67457676D01*
X103421041Y-67416913D01*
X103648145Y-67395171D01*
X103875377Y-67392583D01*
X104099100Y-67409287D01*
X104315673Y-67445418D01*
X104396091Y-67464464D01*
X104456025Y-67480856D01*
X104525577Y-67501459D01*
X104601752Y-67525227D01*
X104681552Y-67551114D01*
X104761979Y-67578076D01*
X104840037Y-67605065D01*
X104912728Y-67631037D01*
X104977054Y-67654945D01*
X105030019Y-67675745D01*
X105068624Y-67692390D01*
X105089874Y-67703835D01*
X105093072Y-67707619D01*
X105088966Y-67723147D01*
X105078348Y-67757175D01*
X105062238Y-67806727D01*
X105041656Y-67868825D01*
X105017619Y-67940494D01*
X104991147Y-68018756D01*
X104963259Y-68100635D01*
X104934974Y-68183154D01*
X104907310Y-68263336D01*
X104881287Y-68338205D01*
X104857923Y-68404785D01*
X104838238Y-68460098D01*
X104823251Y-68501168D01*
X104813980Y-68525018D01*
X104811638Y-68529772D01*
X104798759Y-68528752D01*
X104766913Y-68521009D01*
X104718948Y-68507388D01*
X104657713Y-68488737D01*
X104586056Y-68465903D01*
X104506824Y-68439731D01*
X104492492Y-68434905D01*
X104380291Y-68397302D01*
X104286332Y-68366746D01*
X104207111Y-68342517D01*
X104139123Y-68323899D01*
X104078865Y-68310171D01*
X104022833Y-68300617D01*
X103967522Y-68294518D01*
X103909427Y-68291156D01*
X103845045Y-68289811D01*
X103784182Y-68289714D01*
X103699235Y-68290631D01*
X103631457Y-68293067D01*
X103574949Y-68297500D01*
X103523813Y-68304410D01*
X103472150Y-68314273D01*
X103466682Y-68315450D01*
X103270203Y-68368193D01*
X103087317Y-68437911D01*
X102918888Y-68524057D01*
X102765779Y-68626087D01*
X102628854Y-68743454D01*
X102508977Y-68875612D01*
X102446578Y-68960329D01*
X102365000Y-69100325D01*
X102304923Y-69247721D01*
X102266556Y-69400976D01*
X102250111Y-69558547D01*
X102255798Y-69718892D01*
X102283829Y-69880470D01*
X102308719Y-69968909D01*
X102363619Y-70108576D01*
X102438200Y-70249048D01*
X102529658Y-70385872D01*
X102635190Y-70514592D01*
X102685667Y-70567824D01*
X102841839Y-70708845D01*
X103013257Y-70833082D01*
X103198778Y-70940016D01*
X103397254Y-71029125D01*
X103607541Y-71099888D01*
X103828494Y-71151786D01*
X104037195Y-71182109D01*
X104126871Y-71188511D01*
X104231281Y-71191105D01*
X104343728Y-71190113D01*
X104457516Y-71185755D01*
X104565947Y-71178249D01*
X104662325Y-71167817D01*
X104713591Y-71159885D01*
X104958594Y-71106325D01*
X105188749Y-71036097D01*
X105405797Y-70948598D01*
X105585273Y-70857982D01*
X105712869Y-70783325D01*
X105825457Y-70708512D01*
X105930490Y-70628026D01*
X106035422Y-70536349D01*
X106091795Y-70483028D01*
X106235939Y-70330715D01*
X106358394Y-70172978D01*
X106460299Y-70007897D01*
X106542789Y-69833548D01*
X106607000Y-69648012D01*
X106625120Y-69581051D01*
X106662098Y-69388311D01*
X106676492Y-69194012D01*
X106668653Y-68999243D01*
X106638936Y-68805094D01*
X106587693Y-68612652D01*
X106515278Y-68423006D01*
X106422045Y-68237246D01*
X106308346Y-68056459D01*
X106174535Y-67881736D01*
X106020965Y-67714164D01*
X106018454Y-67711651D01*
X105831642Y-67541175D01*
X105630669Y-67388902D01*
X105415639Y-67254877D01*
X105186657Y-67139147D01*
X104943829Y-67041757D01*
X104687258Y-66962753D01*
X104417051Y-66902182D01*
X104133311Y-66860088D01*
X104056381Y-66852086D01*
X103931639Y-66842848D01*
X103805336Y-66839051D01*
X103674344Y-66840901D01*
X103535533Y-66848605D01*
X103385775Y-66862371D01*
X103221939Y-66882404D01*
X103040896Y-66908913D01*
X102932148Y-66926445D01*
X102815130Y-66945428D01*
X102720665Y-66959852D01*
X102648673Y-66969728D01*
X102599073Y-66975067D01*
X102571784Y-66975878D01*
X102565945Y-66973908D01*
X102562492Y-66957522D01*
X102556026Y-66922105D01*
X102547043Y-66870685D01*
X102536041Y-66806291D01*
X102523517Y-66731952D01*
X102509969Y-66650695D01*
X102495893Y-66565550D01*
X102481786Y-66479545D01*
X102468146Y-66395708D01*
X102455469Y-66317069D01*
X102444254Y-66246655D01*
X102434996Y-66187496D01*
X102428194Y-66142619D01*
X102424344Y-66115054D01*
X102423725Y-66107500D01*
X102437258Y-66103636D01*
X102470602Y-66096886D01*
X102520724Y-66087734D01*
X102584592Y-66076663D01*
X102659171Y-66064157D01*
X102741430Y-66050698D01*
X102828335Y-66036770D01*
X102916854Y-66022856D01*
X103003954Y-66009441D01*
X103086601Y-65997006D01*
X103161764Y-65986037D01*
X103226408Y-65977015D01*
X103277502Y-65970425D01*
X103299273Y-65967955D01*
X103400499Y-65959737D01*
X103518596Y-65954011D01*
X103647476Y-65950780D01*
X103781053Y-65950049D01*
X103913242Y-65951821D01*
X104037956Y-65956098D01*
X104149108Y-65962885D01*
X104199819Y-65967437D01*
X104506413Y-66008181D01*
X104800166Y-66066441D01*
X105084031Y-66142892D01*
X105321108Y-66223185D01*
X105407349Y-66257605D01*
X105507181Y-66301384D01*
X105614731Y-66351634D01*
X105724125Y-66405465D01*
X105829491Y-66459985D01*
X105924956Y-66512304D01*
X106004646Y-66559534D01*
X106004854Y-66559663D01*
X106236225Y-66716711D01*
X106451890Y-66887866D01*
X106651077Y-67072075D01*
X106833017Y-67268282D01*
X106996936Y-67475432D01*
X107142066Y-67692470D01*
X107267635Y-67918341D01*
X107372871Y-68151990D01*
X107457004Y-68392362D01*
X107517448Y-68629637D01*
X107534018Y-68714149D01*
X107546455Y-68791429D01*
X107555280Y-68867322D01*
X107561014Y-68947674D01*
X107564178Y-69038331D01*
X107565295Y-69145138D01*
X107565319Y-69166500D01*
X107565319Y-69166500D01*
D15*
X61668780Y-65189860D02*
X62029460Y-66660520D01*
X62029460Y-66660520D02*
X62308860Y-65598800D01*
X62308860Y-65598800D02*
X62618740Y-66670680D01*
X62618740Y-66670680D02*
X62959100Y-65220340D01*
X60248920Y-65880740D02*
X61038860Y-65870580D01*
X61038860Y-65870580D02*
X61049020Y-65880740D01*
X61049020Y-65880740D02*
X61049020Y-65870580D01*
X61089660Y-65159380D02*
X61089660Y-66701160D01*
X60200660Y-65149220D02*
X60200660Y-66718940D01*
X60200660Y-66718940D02*
X60210820Y-66708780D01*
X59649480Y-65250820D02*
X59298960Y-65169540D01*
X59298960Y-65169540D02*
X58978920Y-65159380D01*
X58978920Y-65159380D02*
X58740160Y-65360040D01*
X58740160Y-65360040D02*
X58709680Y-65629280D01*
X58709680Y-65629280D02*
X58950980Y-65870580D01*
X58950980Y-65870580D02*
X59339600Y-66000120D01*
X59339600Y-66000120D02*
X59519940Y-66160140D01*
X59519940Y-66160140D02*
X59560580Y-66459860D01*
X59560580Y-66459860D02*
X59329440Y-66680840D01*
X59329440Y-66680840D02*
X59009400Y-66708780D01*
X59009400Y-66708780D02*
X58658880Y-66599560D01*
X57620020Y-65149220D02*
X57371100Y-65169540D01*
X57371100Y-65169540D02*
X57129800Y-65410840D01*
X57129800Y-65410840D02*
X57040900Y-65901060D01*
X57040900Y-65901060D02*
X57068840Y-66249040D01*
X57068840Y-66249040D02*
X57269500Y-66569080D01*
X57269500Y-66569080D02*
X57520960Y-66691000D01*
X57520960Y-66691000D02*
X57830840Y-66619880D01*
X57830840Y-66619880D02*
X58049280Y-66439540D01*
X58049280Y-66439540D02*
X58120400Y-65979800D01*
X58120400Y-65979800D02*
X58069600Y-65570860D01*
X58069600Y-65570860D02*
X57960380Y-65288920D01*
X57960380Y-65288920D02*
X57599700Y-65159380D01*
X58219460Y-63429640D02*
X57960380Y-63990980D01*
X57960380Y-63990980D02*
X58498860Y-64509140D01*
X58498860Y-64509140D02*
X59019560Y-64239900D01*
X59019560Y-64239900D02*
X59298960Y-64399920D01*
X60739140Y-64379600D02*
X61069340Y-64189100D01*
X61069340Y-64189100D02*
X61508760Y-64519300D01*
X61508760Y-64519300D02*
X61981200Y-64029080D01*
X61981200Y-64029080D02*
X61699260Y-63549020D01*
X61699260Y-63549020D02*
X61889760Y-63079120D01*
X61889760Y-63079120D02*
X62499360Y-62891160D01*
X62499360Y-62891160D02*
X62499360Y-62210440D01*
X62499360Y-62210440D02*
X61940560Y-62070740D01*
X61940560Y-62070740D02*
X61739900Y-61499240D01*
X61739900Y-61499240D02*
X62009140Y-61029340D01*
X62009140Y-61029340D02*
X61539240Y-60518800D01*
X61539240Y-60518800D02*
X61021080Y-60780420D01*
X61021080Y-60780420D02*
X60551180Y-60579760D01*
X60551180Y-60579760D02*
X60381000Y-60038740D01*
X60381000Y-60038740D02*
X59690120Y-60020960D01*
X59690120Y-60020960D02*
X59479300Y-60569600D01*
X59479300Y-60569600D02*
X59060200Y-60739780D01*
X59060200Y-60739780D02*
X58509020Y-60470540D01*
X58509020Y-60470540D02*
X57990860Y-60998860D01*
X57990860Y-60998860D02*
X58239780Y-61539880D01*
X58239780Y-61539880D02*
X58069600Y-62019940D01*
X58069600Y-62019940D02*
X57520960Y-62119000D01*
X57520960Y-62119000D02*
X57510800Y-62820040D01*
X57510800Y-62820040D02*
X58069600Y-63020700D01*
X58069600Y-63020700D02*
X58209300Y-63419480D01*
X60350520Y-63399160D02*
X60650240Y-63249300D01*
X60650240Y-63249300D02*
X60850900Y-63051180D01*
X60850900Y-63051180D02*
X61000760Y-62649860D01*
X61000760Y-62649860D02*
X61000760Y-62251080D01*
X61000760Y-62251080D02*
X60850900Y-61900560D01*
X60850900Y-61900560D02*
X60398780Y-61550040D01*
X60398780Y-61550040D02*
X59949200Y-61499240D01*
X59949200Y-61499240D02*
X59550420Y-61600840D01*
X59550420Y-61600840D02*
X59149100Y-61948820D01*
X59149100Y-61948820D02*
X58999240Y-62400940D01*
X58999240Y-62400940D02*
X59050040Y-62898780D01*
X59050040Y-62898780D02*
X59298960Y-63201040D01*
X59298960Y-63201040D02*
X59649480Y-63399160D01*
X59649480Y-63399160D02*
X59298960Y-64399920D01*
X60350520Y-63399160D02*
X60749300Y-64399920D01*
D10*
X61466667Y-52404762D02*
X61609524Y-52452381D01*
X61847620Y-52452381D01*
X61942858Y-52404762D01*
X61990477Y-52357143D01*
X62038096Y-52261905D01*
X62038096Y-52166667D01*
X61990477Y-52071429D01*
X61942858Y-52023810D01*
X61847620Y-51976190D01*
X61657143Y-51928571D01*
X61561905Y-51880952D01*
X61514286Y-51833333D01*
X61466667Y-51738095D01*
X61466667Y-51642857D01*
X61514286Y-51547619D01*
X61561905Y-51500000D01*
X61657143Y-51452381D01*
X61895239Y-51452381D01*
X62038096Y-51500000D01*
X62371429Y-51452381D02*
X62609524Y-52452381D01*
X62800001Y-51738095D01*
X62990477Y-52452381D01*
X63228572Y-51452381D01*
X63514286Y-51452381D02*
X64133334Y-51452381D01*
X63800000Y-51833333D01*
X63942858Y-51833333D01*
X64038096Y-51880952D01*
X64085715Y-51928571D01*
X64133334Y-52023810D01*
X64133334Y-52261905D01*
X64085715Y-52357143D01*
X64038096Y-52404762D01*
X63942858Y-52452381D01*
X63657143Y-52452381D01*
X63561905Y-52404762D01*
X63514286Y-52357143D01*
X61733334Y-58452381D02*
X61500000Y-57976190D01*
X61333334Y-58452381D02*
X61333334Y-57452381D01*
X61600000Y-57452381D01*
X61666667Y-57500000D01*
X61700000Y-57547619D01*
X61733334Y-57642857D01*
X61733334Y-57785714D01*
X61700000Y-57880952D01*
X61666667Y-57928571D01*
X61600000Y-57976190D01*
X61333334Y-57976190D01*
X62033334Y-57928571D02*
X62266667Y-57928571D01*
X62366667Y-58452381D02*
X62033334Y-58452381D01*
X62033334Y-57452381D01*
X62366667Y-57452381D01*
X62633333Y-58404762D02*
X62733333Y-58452381D01*
X62900000Y-58452381D01*
X62966667Y-58404762D01*
X63000000Y-58357143D01*
X63033333Y-58261905D01*
X63033333Y-58166667D01*
X63000000Y-58071429D01*
X62966667Y-58023810D01*
X62900000Y-57976190D01*
X62766667Y-57928571D01*
X62700000Y-57880952D01*
X62666667Y-57833333D01*
X62633333Y-57738095D01*
X62633333Y-57642857D01*
X62666667Y-57547619D01*
X62700000Y-57500000D01*
X62766667Y-57452381D01*
X62933333Y-57452381D01*
X63033333Y-57500000D01*
X63333334Y-57928571D02*
X63566667Y-57928571D01*
X63666667Y-58452381D02*
X63333334Y-58452381D01*
X63333334Y-57452381D01*
X63666667Y-57452381D01*
X63866667Y-57452381D02*
X64266667Y-57452381D01*
X64066667Y-58452381D02*
X64066667Y-57452381D01*
X92383333Y-116722619D02*
X92316667Y-116675000D01*
X92250000Y-116579762D01*
X92150000Y-116436905D01*
X92083333Y-116389286D01*
X92016667Y-116389286D01*
X92050000Y-116627381D02*
X91983333Y-116579762D01*
X91916667Y-116484524D01*
X91883333Y-116294048D01*
X91883333Y-115960714D01*
X91916667Y-115770238D01*
X91983333Y-115675000D01*
X92050000Y-115627381D01*
X92183333Y-115627381D01*
X92250000Y-115675000D01*
X92316667Y-115770238D01*
X92350000Y-115960714D01*
X92350000Y-116294048D01*
X92316667Y-116484524D01*
X92250000Y-116579762D01*
X92183333Y-116627381D01*
X92050000Y-116627381D01*
X92650000Y-116627381D02*
X92650000Y-115627381D01*
X92916666Y-115627381D01*
X92983333Y-115675000D01*
X93016666Y-115722619D01*
X93050000Y-115817857D01*
X93050000Y-115960714D01*
X93016666Y-116055952D01*
X92983333Y-116103571D01*
X92916666Y-116151190D01*
X92650000Y-116151190D01*
X93650000Y-115627381D02*
X93516666Y-115627381D01*
X93450000Y-115675000D01*
X93416666Y-115722619D01*
X93350000Y-115865476D01*
X93316666Y-116055952D01*
X93316666Y-116436905D01*
X93350000Y-116532143D01*
X93383333Y-116579762D01*
X93450000Y-116627381D01*
X93583333Y-116627381D01*
X93650000Y-116579762D01*
X93683333Y-116532143D01*
X93716666Y-116436905D01*
X93716666Y-116198810D01*
X93683333Y-116103571D01*
X93650000Y-116055952D01*
X93583333Y-116008333D01*
X93450000Y-116008333D01*
X93383333Y-116055952D01*
X93350000Y-116103571D01*
X93316666Y-116198810D01*
D18*
X85179620Y-106997896D02*
X85131965Y-107093207D01*
X85131965Y-107236172D01*
X85179620Y-107379138D01*
X85274930Y-107474449D01*
X85370241Y-107522104D01*
X85560862Y-107569759D01*
X85703828Y-107569759D01*
X85894449Y-107522104D01*
X85989759Y-107474449D01*
X86085070Y-107379138D01*
X86132725Y-107236172D01*
X86132725Y-107140862D01*
X86085070Y-106997896D01*
X86037414Y-106950241D01*
X85703828Y-106950241D01*
X85703828Y-107140862D01*
D19*
D18*
X86085070Y-112625931D02*
X86132725Y-112482965D01*
X86132725Y-112244689D01*
X86085070Y-112149379D01*
X86037414Y-112101723D01*
X85942104Y-112054068D01*
X85846793Y-112054068D01*
X85751483Y-112101723D01*
X85703828Y-112149379D01*
X85656172Y-112244689D01*
X85608517Y-112435310D01*
X85560862Y-112530621D01*
X85513207Y-112578276D01*
X85417896Y-112625931D01*
X85322586Y-112625931D01*
X85227275Y-112578276D01*
X85179620Y-112530621D01*
X85131965Y-112435310D01*
X85131965Y-112197034D01*
X85179620Y-112054068D01*
D19*
D18*
X86132725Y-110062104D02*
X85131965Y-110062104D01*
X85131965Y-109823828D01*
X85179620Y-109680862D01*
X85274930Y-109585551D01*
X85370241Y-109537896D01*
X85560862Y-109490241D01*
X85703828Y-109490241D01*
X85894449Y-109537896D01*
X85989759Y-109585551D01*
X86085070Y-109680862D01*
X86132725Y-109823828D01*
X86132725Y-110062104D01*
D19*
D10*
X118757143Y-107375000D02*
X118804762Y-107408334D01*
X118852381Y-107508334D01*
X118852381Y-107575000D01*
X118804762Y-107675000D01*
X118709524Y-107741667D01*
X118614286Y-107775000D01*
X118423810Y-107808334D01*
X118280952Y-107808334D01*
X118090476Y-107775000D01*
X117995238Y-107741667D01*
X117900000Y-107675000D01*
X117852381Y-107575000D01*
X117852381Y-107508334D01*
X117900000Y-107408334D01*
X117947619Y-107375000D01*
X118852381Y-106708334D02*
X118852381Y-107108334D01*
X118852381Y-106908334D02*
X117852381Y-106908334D01*
X117995238Y-106975000D01*
X118090476Y-107041667D01*
X118138095Y-107108334D01*
X117852381Y-106275000D02*
X117852381Y-106208333D01*
X117900000Y-106141667D01*
X117947619Y-106108333D01*
X118042857Y-106075000D01*
X118233333Y-106041667D01*
X118471429Y-106041667D01*
X118661905Y-106075000D01*
X118757143Y-106108333D01*
X118804762Y-106141667D01*
X118852381Y-106208333D01*
X118852381Y-106275000D01*
X118804762Y-106341667D01*
X118757143Y-106375000D01*
X118661905Y-106408333D01*
X118471429Y-106441667D01*
X118233333Y-106441667D01*
X118042857Y-106408333D01*
X117947619Y-106375000D01*
X117900000Y-106341667D01*
X117852381Y-106275000D01*
X106450000Y-112857143D02*
X106416666Y-112904762D01*
X106316666Y-112952381D01*
X106250000Y-112952381D01*
X106150000Y-112904762D01*
X106083333Y-112809524D01*
X106050000Y-112714286D01*
X106016666Y-112523810D01*
X106016666Y-112380952D01*
X106050000Y-112190476D01*
X106083333Y-112095238D01*
X106150000Y-112000000D01*
X106250000Y-111952381D01*
X106316666Y-111952381D01*
X106416666Y-112000000D01*
X106450000Y-112047619D01*
X107116666Y-112952381D02*
X106716666Y-112952381D01*
X106916666Y-112952381D02*
X106916666Y-111952381D01*
X106850000Y-112095238D01*
X106783333Y-112190476D01*
X106716666Y-112238095D01*
X107716667Y-112285714D02*
X107716667Y-112952381D01*
X107550000Y-111904762D02*
X107383333Y-112619048D01*
X107816667Y-112619048D01*
X96766667Y-101528571D02*
X96533334Y-101528571D01*
X96533334Y-102052381D02*
X96533334Y-101052381D01*
X96866667Y-101052381D01*
X97500000Y-102052381D02*
X97100000Y-102052381D01*
X97300000Y-102052381D02*
X97300000Y-101052381D01*
X97233334Y-101195238D01*
X97166667Y-101290476D01*
X97100000Y-101338095D01*
X113816667Y-58497619D02*
X113750001Y-58450000D01*
X113683334Y-58354762D01*
X113583334Y-58211905D01*
X113516667Y-58164286D01*
X113450001Y-58164286D01*
X113483334Y-58402381D02*
X113416667Y-58354762D01*
X113350001Y-58259524D01*
X113316667Y-58069048D01*
X113316667Y-57735714D01*
X113350001Y-57545238D01*
X113416667Y-57450000D01*
X113483334Y-57402381D01*
X113616667Y-57402381D01*
X113683334Y-57450000D01*
X113750001Y-57545238D01*
X113783334Y-57735714D01*
X113783334Y-58069048D01*
X113750001Y-58259524D01*
X113683334Y-58354762D01*
X113616667Y-58402381D01*
X113483334Y-58402381D01*
X114083334Y-58402381D02*
X114083334Y-57402381D01*
X114483334Y-58402381D01*
X114483334Y-57402381D01*
X115183333Y-58402381D02*
X114783333Y-58402381D01*
X114983333Y-58402381D02*
X114983333Y-57402381D01*
X114916667Y-57545238D01*
X114850000Y-57640476D01*
X114783333Y-57688095D01*
X75837619Y-94333333D02*
X75790000Y-94399999D01*
X75694762Y-94466666D01*
X75551905Y-94566666D01*
X75504286Y-94633333D01*
X75504286Y-94699999D01*
X75742381Y-94666666D02*
X75694762Y-94733333D01*
X75599524Y-94799999D01*
X75409048Y-94833333D01*
X75075714Y-94833333D01*
X74885238Y-94799999D01*
X74790000Y-94733333D01*
X74742381Y-94666666D01*
X74742381Y-94533333D01*
X74790000Y-94466666D01*
X74885238Y-94399999D01*
X75075714Y-94366666D01*
X75409048Y-94366666D01*
X75599524Y-94399999D01*
X75694762Y-94466666D01*
X75742381Y-94533333D01*
X75742381Y-94666666D01*
X75742381Y-94066666D02*
X74742381Y-94066666D01*
X75742381Y-93666666D01*
X74742381Y-93666666D01*
X74837619Y-93366667D02*
X74790000Y-93333333D01*
X74742381Y-93266667D01*
X74742381Y-93100000D01*
X74790000Y-93033333D01*
X74837619Y-93000000D01*
X74932857Y-92966667D01*
X75028095Y-92966667D01*
X75170952Y-93000000D01*
X75742381Y-93400000D01*
X75742381Y-92966667D01*
X88566667Y-96747619D02*
X88500001Y-96700000D01*
X88433334Y-96604762D01*
X88333334Y-96461905D01*
X88266667Y-96414286D01*
X88200001Y-96414286D01*
X88233334Y-96652381D02*
X88166667Y-96604762D01*
X88100001Y-96509524D01*
X88066667Y-96319048D01*
X88066667Y-95985714D01*
X88100001Y-95795238D01*
X88166667Y-95700000D01*
X88233334Y-95652381D01*
X88366667Y-95652381D01*
X88433334Y-95700000D01*
X88500001Y-95795238D01*
X88533334Y-95985714D01*
X88533334Y-96319048D01*
X88500001Y-96509524D01*
X88433334Y-96604762D01*
X88366667Y-96652381D01*
X88233334Y-96652381D01*
X88833334Y-96652381D02*
X88833334Y-95652381D01*
X89233334Y-96652381D01*
X89233334Y-95652381D01*
X89500000Y-95652381D02*
X89933333Y-95652381D01*
X89700000Y-96033333D01*
X89800000Y-96033333D01*
X89866667Y-96080952D01*
X89900000Y-96128571D01*
X89933333Y-96223810D01*
X89933333Y-96461905D01*
X89900000Y-96557143D01*
X89866667Y-96604762D01*
X89800000Y-96652381D01*
X89600000Y-96652381D01*
X89533333Y-96604762D01*
X89500000Y-96557143D01*
X94266667Y-96747619D02*
X94200001Y-96700000D01*
X94133334Y-96604762D01*
X94033334Y-96461905D01*
X93966667Y-96414286D01*
X93900001Y-96414286D01*
X93933334Y-96652381D02*
X93866667Y-96604762D01*
X93800001Y-96509524D01*
X93766667Y-96319048D01*
X93766667Y-95985714D01*
X93800001Y-95795238D01*
X93866667Y-95700000D01*
X93933334Y-95652381D01*
X94066667Y-95652381D01*
X94133334Y-95700000D01*
X94200001Y-95795238D01*
X94233334Y-95985714D01*
X94233334Y-96319048D01*
X94200001Y-96509524D01*
X94133334Y-96604762D01*
X94066667Y-96652381D01*
X93933334Y-96652381D01*
X94533334Y-96652381D02*
X94533334Y-95652381D01*
X94933334Y-96652381D01*
X94933334Y-95652381D01*
X95566667Y-95985714D02*
X95566667Y-96652381D01*
X95400000Y-95604762D02*
X95233333Y-96319048D01*
X95666667Y-96319048D01*
X79466667Y-74447619D02*
X79400001Y-74400000D01*
X79333334Y-74304762D01*
X79233334Y-74161905D01*
X79166667Y-74114286D01*
X79100001Y-74114286D01*
X79133334Y-74352381D02*
X79066667Y-74304762D01*
X79000001Y-74209524D01*
X78966667Y-74019048D01*
X78966667Y-73685714D01*
X79000001Y-73495238D01*
X79066667Y-73400000D01*
X79133334Y-73352381D01*
X79266667Y-73352381D01*
X79333334Y-73400000D01*
X79400001Y-73495238D01*
X79433334Y-73685714D01*
X79433334Y-74019048D01*
X79400001Y-74209524D01*
X79333334Y-74304762D01*
X79266667Y-74352381D01*
X79133334Y-74352381D01*
X79733334Y-74352381D02*
X79733334Y-73352381D01*
X80133334Y-74352381D01*
X80133334Y-73352381D01*
X80800000Y-73352381D02*
X80466667Y-73352381D01*
X80433333Y-73828571D01*
X80466667Y-73780952D01*
X80533333Y-73733333D01*
X80700000Y-73733333D01*
X80766667Y-73780952D01*
X80800000Y-73828571D01*
X80833333Y-73923810D01*
X80833333Y-74161905D01*
X80800000Y-74257143D01*
X80766667Y-74304762D01*
X80700000Y-74352381D01*
X80533333Y-74352381D01*
X80466667Y-74304762D01*
X80433333Y-74257143D01*
X100750000Y-99047619D02*
X100683334Y-99000000D01*
X100616667Y-98904762D01*
X100516667Y-98761905D01*
X100450000Y-98714286D01*
X100383334Y-98714286D01*
X100416667Y-98952381D02*
X100350000Y-98904762D01*
X100283334Y-98809524D01*
X100250000Y-98619048D01*
X100250000Y-98285714D01*
X100283334Y-98095238D01*
X100350000Y-98000000D01*
X100416667Y-97952381D01*
X100550000Y-97952381D01*
X100616667Y-98000000D01*
X100683334Y-98095238D01*
X100716667Y-98285714D01*
X100716667Y-98619048D01*
X100683334Y-98809524D01*
X100616667Y-98904762D01*
X100550000Y-98952381D01*
X100416667Y-98952381D01*
X101016667Y-98952381D02*
X101016667Y-97952381D01*
X101283333Y-97952381D01*
X101350000Y-98000000D01*
X101383333Y-98047619D01*
X101416667Y-98142857D01*
X101416667Y-98285714D01*
X101383333Y-98380952D01*
X101350000Y-98428571D01*
X101283333Y-98476190D01*
X101016667Y-98476190D01*
X102083333Y-98952381D02*
X101683333Y-98952381D01*
X101883333Y-98952381D02*
X101883333Y-97952381D01*
X101816667Y-98095238D01*
X101750000Y-98190476D01*
X101683333Y-98238095D01*
X102516667Y-97952381D02*
X102583334Y-97952381D01*
X102650000Y-98000000D01*
X102683334Y-98047619D01*
X102716667Y-98142857D01*
X102750000Y-98333333D01*
X102750000Y-98571429D01*
X102716667Y-98761905D01*
X102683334Y-98857143D01*
X102650000Y-98904762D01*
X102583334Y-98952381D01*
X102516667Y-98952381D01*
X102450000Y-98904762D01*
X102416667Y-98857143D01*
X102383334Y-98761905D01*
X102350000Y-98571429D01*
X102350000Y-98333333D01*
X102383334Y-98142857D01*
X102416667Y-98047619D01*
X102450000Y-98000000D01*
X102516667Y-97952381D01*
X69466667Y-52404762D02*
X69609524Y-52452381D01*
X69847620Y-52452381D01*
X69942858Y-52404762D01*
X69990477Y-52357143D01*
X70038096Y-52261905D01*
X70038096Y-52166667D01*
X69990477Y-52071429D01*
X69942858Y-52023810D01*
X69847620Y-51976190D01*
X69657143Y-51928571D01*
X69561905Y-51880952D01*
X69514286Y-51833333D01*
X69466667Y-51738095D01*
X69466667Y-51642857D01*
X69514286Y-51547619D01*
X69561905Y-51500000D01*
X69657143Y-51452381D01*
X69895239Y-51452381D01*
X70038096Y-51500000D01*
X70371429Y-51452381D02*
X70609524Y-52452381D01*
X70800001Y-51738095D01*
X70990477Y-52452381D01*
X71228572Y-51452381D01*
X71561905Y-51547619D02*
X71609524Y-51500000D01*
X71704762Y-51452381D01*
X71942858Y-51452381D01*
X72038096Y-51500000D01*
X72085715Y-51547619D01*
X72133334Y-51642857D01*
X72133334Y-51738095D01*
X72085715Y-51880952D01*
X71514286Y-52452381D01*
X72133334Y-52452381D01*
X69800001Y-57928571D02*
X69900001Y-57976190D01*
X69933334Y-58023810D01*
X69966668Y-58119048D01*
X69966668Y-58261905D01*
X69933334Y-58357143D01*
X69900001Y-58404762D01*
X69833334Y-58452381D01*
X69566668Y-58452381D01*
X69566668Y-57452381D01*
X69800001Y-57452381D01*
X69866668Y-57500000D01*
X69900001Y-57547619D01*
X69933334Y-57642857D01*
X69933334Y-57738095D01*
X69900001Y-57833333D01*
X69866668Y-57880952D01*
X69800001Y-57928571D01*
X69566668Y-57928571D01*
X70400001Y-57452381D02*
X70533334Y-57452381D01*
X70600001Y-57500000D01*
X70666668Y-57595238D01*
X70700001Y-57785714D01*
X70700001Y-58119048D01*
X70666668Y-58309524D01*
X70600001Y-58404762D01*
X70533334Y-58452381D01*
X70400001Y-58452381D01*
X70333334Y-58404762D01*
X70266668Y-58309524D01*
X70233334Y-58119048D01*
X70233334Y-57785714D01*
X70266668Y-57595238D01*
X70333334Y-57500000D01*
X70400001Y-57452381D01*
X71133334Y-57452381D02*
X71266667Y-57452381D01*
X71333334Y-57500000D01*
X71400001Y-57595238D01*
X71433334Y-57785714D01*
X71433334Y-58119048D01*
X71400001Y-58309524D01*
X71333334Y-58404762D01*
X71266667Y-58452381D01*
X71133334Y-58452381D01*
X71066667Y-58404762D01*
X71000001Y-58309524D01*
X70966667Y-58119048D01*
X70966667Y-57785714D01*
X71000001Y-57595238D01*
X71066667Y-57500000D01*
X71133334Y-57452381D01*
X71633334Y-57452381D02*
X72033334Y-57452381D01*
X71833334Y-58452381D02*
X71833334Y-57452381D01*
X83966667Y-55052381D02*
X83966667Y-55861905D01*
X84000000Y-55957143D01*
X84033333Y-56004762D01*
X84100000Y-56052381D01*
X84233333Y-56052381D01*
X84300000Y-56004762D01*
X84333333Y-55957143D01*
X84366667Y-55861905D01*
X84366667Y-55052381D01*
X85000000Y-55052381D02*
X84866666Y-55052381D01*
X84800000Y-55100000D01*
X84766666Y-55147619D01*
X84700000Y-55290476D01*
X84666666Y-55480952D01*
X84666666Y-55861905D01*
X84700000Y-55957143D01*
X84733333Y-56004762D01*
X84800000Y-56052381D01*
X84933333Y-56052381D01*
X85000000Y-56004762D01*
X85033333Y-55957143D01*
X85066666Y-55861905D01*
X85066666Y-55623810D01*
X85033333Y-55528571D01*
X85000000Y-55480952D01*
X84933333Y-55433333D01*
X84800000Y-55433333D01*
X84733333Y-55480952D01*
X84700000Y-55528571D01*
X84666666Y-55623810D01*
X73757143Y-112850000D02*
X73804762Y-112883334D01*
X73852381Y-112983334D01*
X73852381Y-113050000D01*
X73804762Y-113150000D01*
X73709524Y-113216667D01*
X73614286Y-113250000D01*
X73423810Y-113283334D01*
X73280952Y-113283334D01*
X73090476Y-113250000D01*
X72995238Y-113216667D01*
X72900000Y-113150000D01*
X72852381Y-113050000D01*
X72852381Y-112983334D01*
X72900000Y-112883334D01*
X72947619Y-112850000D01*
X73852381Y-112183334D02*
X73852381Y-112583334D01*
X73852381Y-112383334D02*
X72852381Y-112383334D01*
X72995238Y-112450000D01*
X73090476Y-112516667D01*
X73138095Y-112583334D01*
X73852381Y-111516667D02*
X73852381Y-111916667D01*
X73852381Y-111716667D02*
X72852381Y-111716667D01*
X72995238Y-111783333D01*
X73090476Y-111850000D01*
X73138095Y-111916667D01*
X71483334Y-70852381D02*
X71483334Y-69852381D01*
X71750000Y-69852381D01*
X71816667Y-69900000D01*
X71850000Y-69947619D01*
X71883334Y-70042857D01*
X71883334Y-70185714D01*
X71850000Y-70280952D01*
X71816667Y-70328571D01*
X71750000Y-70376190D01*
X71483334Y-70376190D01*
X72150000Y-69947619D02*
X72183334Y-69900000D01*
X72250000Y-69852381D01*
X72416667Y-69852381D01*
X72483334Y-69900000D01*
X72516667Y-69947619D01*
X72550000Y-70042857D01*
X72550000Y-70138095D01*
X72516667Y-70280952D01*
X72116667Y-70852381D01*
X72550000Y-70852381D01*
X110977381Y-108483333D02*
X111786905Y-108483333D01*
X111882143Y-108450000D01*
X111929762Y-108416667D01*
X111977381Y-108350000D01*
X111977381Y-108216667D01*
X111929762Y-108150000D01*
X111882143Y-108116667D01*
X111786905Y-108083333D01*
X110977381Y-108083333D01*
X110977381Y-107416667D02*
X110977381Y-107750000D01*
X111453571Y-107783334D01*
X111405952Y-107750000D01*
X111358333Y-107683334D01*
X111358333Y-107516667D01*
X111405952Y-107450000D01*
X111453571Y-107416667D01*
X111548810Y-107383334D01*
X111786905Y-107383334D01*
X111882143Y-107416667D01*
X111929762Y-107450000D01*
X111977381Y-107516667D01*
X111977381Y-107683334D01*
X111929762Y-107750000D01*
X111882143Y-107783334D01*
X105404762Y-90433334D02*
X105452381Y-90333334D01*
X105452381Y-90166667D01*
X105404762Y-90100000D01*
X105357143Y-90066667D01*
X105261905Y-90033334D01*
X105166667Y-90033334D01*
X105071429Y-90066667D01*
X105023810Y-90100000D01*
X104976190Y-90166667D01*
X104928571Y-90300000D01*
X104880952Y-90366667D01*
X104833333Y-90400000D01*
X104738095Y-90433334D01*
X104642857Y-90433334D01*
X104547619Y-90400000D01*
X104500000Y-90366667D01*
X104452381Y-90300000D01*
X104452381Y-90133334D01*
X104500000Y-90033334D01*
X104452381Y-89800000D02*
X105452381Y-89633333D01*
X104738095Y-89500000D01*
X105452381Y-89366667D01*
X104452381Y-89200000D01*
X105452381Y-88566667D02*
X105452381Y-88966667D01*
X105452381Y-88766667D02*
X104452381Y-88766667D01*
X104595238Y-88833333D01*
X104690476Y-88900000D01*
X104738095Y-88966667D01*
X113766667Y-76452381D02*
X113766667Y-77166667D01*
X113733333Y-77309524D01*
X113666667Y-77404762D01*
X113566667Y-77452381D01*
X113500000Y-77452381D01*
X114033333Y-76452381D02*
X114466666Y-76452381D01*
X114233333Y-76833333D01*
X114333333Y-76833333D01*
X114400000Y-76880952D01*
X114433333Y-76928571D01*
X114466666Y-77023810D01*
X114466666Y-77261905D01*
X114433333Y-77357143D01*
X114400000Y-77404762D01*
X114333333Y-77452381D01*
X114133333Y-77452381D01*
X114066666Y-77404762D01*
X114033333Y-77357143D01*
X112066667Y-50852381D02*
X112066667Y-51566667D01*
X112033333Y-51709524D01*
X111966667Y-51804762D01*
X111866667Y-51852381D01*
X111800000Y-51852381D01*
X112766666Y-51852381D02*
X112366666Y-51852381D01*
X112566666Y-51852381D02*
X112566666Y-50852381D01*
X112500000Y-50995238D01*
X112433333Y-51090476D01*
X112366666Y-51138095D01*
X50652381Y-98433333D02*
X51366667Y-98433333D01*
X51509524Y-98466667D01*
X51604762Y-98533333D01*
X51652381Y-98633333D01*
X51652381Y-98700000D01*
X50747619Y-98133334D02*
X50700000Y-98100000D01*
X50652381Y-98033334D01*
X50652381Y-97866667D01*
X50700000Y-97800000D01*
X50747619Y-97766667D01*
X50842857Y-97733334D01*
X50938095Y-97733334D01*
X51080952Y-97766667D01*
X51652381Y-98166667D01*
X51652381Y-97733334D01*
X84452381Y-67981905D02*
X85261905Y-67981905D01*
X85357143Y-67934286D01*
X85404762Y-67886667D01*
X85452381Y-67791429D01*
X85452381Y-67600952D01*
X85404762Y-67505714D01*
X85357143Y-67458095D01*
X85261905Y-67410476D01*
X84452381Y-67410476D01*
X85452381Y-66410476D02*
X85452381Y-66981905D01*
X85452381Y-66696191D02*
X84452381Y-66696191D01*
X84595238Y-66791429D01*
X84690476Y-66886667D01*
X84738095Y-66981905D01*
X96783334Y-72552381D02*
X96783334Y-71552381D01*
X97050000Y-71552381D01*
X97116667Y-71600000D01*
X97150000Y-71647619D01*
X97183334Y-71742857D01*
X97183334Y-71885714D01*
X97150000Y-71980952D01*
X97116667Y-72028571D01*
X97050000Y-72076190D01*
X96783334Y-72076190D01*
X97850000Y-72552381D02*
X97450000Y-72552381D01*
X97650000Y-72552381D02*
X97650000Y-71552381D01*
X97583334Y-71695238D01*
X97516667Y-71790476D01*
X97450000Y-71838095D01*
X84466667Y-85722381D02*
X84466667Y-86531905D01*
X84500000Y-86627143D01*
X84533333Y-86674762D01*
X84600000Y-86722381D01*
X84733333Y-86722381D01*
X84800000Y-86674762D01*
X84833333Y-86627143D01*
X84866667Y-86531905D01*
X84866667Y-85722381D01*
X85166666Y-85817619D02*
X85200000Y-85770000D01*
X85266666Y-85722381D01*
X85433333Y-85722381D01*
X85500000Y-85770000D01*
X85533333Y-85817619D01*
X85566666Y-85912857D01*
X85566666Y-86008095D01*
X85533333Y-86150952D01*
X85133333Y-86722381D01*
X85566666Y-86722381D01*
X61796667Y-113247143D02*
X61763333Y-113294762D01*
X61663333Y-113342381D01*
X61596667Y-113342381D01*
X61496667Y-113294762D01*
X61430000Y-113199524D01*
X61396667Y-113104286D01*
X61363333Y-112913810D01*
X61363333Y-112770952D01*
X61396667Y-112580476D01*
X61430000Y-112485238D01*
X61496667Y-112390000D01*
X61596667Y-112342381D01*
X61663333Y-112342381D01*
X61763333Y-112390000D01*
X61796667Y-112437619D01*
X107907143Y-101233333D02*
X107954762Y-101266667D01*
X108002381Y-101366667D01*
X108002381Y-101433333D01*
X107954762Y-101533333D01*
X107859524Y-101600000D01*
X107764286Y-101633333D01*
X107573810Y-101666667D01*
X107430952Y-101666667D01*
X107240476Y-101633333D01*
X107145238Y-101600000D01*
X107050000Y-101533333D01*
X107002381Y-101433333D01*
X107002381Y-101366667D01*
X107050000Y-101266667D01*
X107097619Y-101233333D01*
X67183334Y-103557143D02*
X67150000Y-103604762D01*
X67050000Y-103652381D01*
X66983334Y-103652381D01*
X66883334Y-103604762D01*
X66816667Y-103509524D01*
X66783334Y-103414286D01*
X66750000Y-103223810D01*
X66750000Y-103080952D01*
X66783334Y-102890476D01*
X66816667Y-102795238D01*
X66883334Y-102700000D01*
X66983334Y-102652381D01*
X67050000Y-102652381D01*
X67150000Y-102700000D01*
X67183334Y-102747619D01*
X67416667Y-102652381D02*
X67883334Y-102652381D01*
X67583334Y-103652381D01*
X72552381Y-102233333D02*
X73361905Y-102233333D01*
X73457143Y-102200000D01*
X73504762Y-102166667D01*
X73552381Y-102100000D01*
X73552381Y-101966667D01*
X73504762Y-101900000D01*
X73457143Y-101866667D01*
X73361905Y-101833333D01*
X72552381Y-101833333D01*
X72885714Y-101200000D02*
X73552381Y-101200000D01*
X72504762Y-101366667D02*
X73219048Y-101533334D01*
X73219048Y-101100000D01*
X77333333Y-63452381D02*
X77800000Y-64452381D01*
X77800000Y-63452381D02*
X77333333Y-64452381D01*
X78433333Y-64452381D02*
X78033333Y-64452381D01*
X78233333Y-64452381D02*
X78233333Y-63452381D01*
X78166667Y-63595238D01*
X78100000Y-63690476D01*
X78033333Y-63738095D01*
X77433334Y-62380952D02*
X77366667Y-62333333D01*
X77333334Y-62285714D01*
X77300000Y-62190476D01*
X77300000Y-62142857D01*
X77333334Y-62047619D01*
X77366667Y-62000000D01*
X77433334Y-61952381D01*
X77566667Y-61952381D01*
X77633334Y-62000000D01*
X77666667Y-62047619D01*
X77700000Y-62142857D01*
X77700000Y-62190476D01*
X77666667Y-62285714D01*
X77633334Y-62333333D01*
X77566667Y-62380952D01*
X77433334Y-62380952D01*
X77366667Y-62428571D01*
X77333334Y-62476190D01*
X77300000Y-62571429D01*
X77300000Y-62761905D01*
X77333334Y-62857143D01*
X77366667Y-62904762D01*
X77433334Y-62952381D01*
X77566667Y-62952381D01*
X77633334Y-62904762D01*
X77666667Y-62857143D01*
X77700000Y-62761905D01*
X77700000Y-62571429D01*
X77666667Y-62476190D01*
X77633334Y-62428571D01*
X77566667Y-62380952D01*
X78000001Y-62952381D02*
X78000001Y-61952381D01*
X78233334Y-62666667D01*
X78466667Y-61952381D01*
X78466667Y-62952381D01*
X88583333Y-74447619D02*
X88516667Y-74400000D01*
X88450000Y-74304762D01*
X88350000Y-74161905D01*
X88283333Y-74114286D01*
X88216667Y-74114286D01*
X88250000Y-74352381D02*
X88183333Y-74304762D01*
X88116667Y-74209524D01*
X88083333Y-74019048D01*
X88083333Y-73685714D01*
X88116667Y-73495238D01*
X88183333Y-73400000D01*
X88250000Y-73352381D01*
X88383333Y-73352381D01*
X88450000Y-73400000D01*
X88516667Y-73495238D01*
X88550000Y-73685714D01*
X88550000Y-74019048D01*
X88516667Y-74209524D01*
X88450000Y-74304762D01*
X88383333Y-74352381D01*
X88250000Y-74352381D01*
X88850000Y-74352381D02*
X88850000Y-73352381D01*
X89116666Y-73352381D01*
X89183333Y-73400000D01*
X89216666Y-73447619D01*
X89250000Y-73542857D01*
X89250000Y-73685714D01*
X89216666Y-73780952D01*
X89183333Y-73828571D01*
X89116666Y-73876190D01*
X88850000Y-73876190D01*
X89483333Y-73352381D02*
X89950000Y-73352381D01*
X89650000Y-74352381D01*
X92283333Y-74447619D02*
X92216667Y-74400000D01*
X92150000Y-74304762D01*
X92050000Y-74161905D01*
X91983333Y-74114286D01*
X91916667Y-74114286D01*
X91950000Y-74352381D02*
X91883333Y-74304762D01*
X91816667Y-74209524D01*
X91783333Y-74019048D01*
X91783333Y-73685714D01*
X91816667Y-73495238D01*
X91883333Y-73400000D01*
X91950000Y-73352381D01*
X92083333Y-73352381D01*
X92150000Y-73400000D01*
X92216667Y-73495238D01*
X92250000Y-73685714D01*
X92250000Y-74019048D01*
X92216667Y-74209524D01*
X92150000Y-74304762D01*
X92083333Y-74352381D01*
X91950000Y-74352381D01*
X92550000Y-74352381D02*
X92550000Y-73352381D01*
X92816666Y-73352381D01*
X92883333Y-73400000D01*
X92916666Y-73447619D01*
X92950000Y-73542857D01*
X92950000Y-73685714D01*
X92916666Y-73780952D01*
X92883333Y-73828571D01*
X92816666Y-73876190D01*
X92550000Y-73876190D01*
X93283333Y-74352381D02*
X93416666Y-74352381D01*
X93483333Y-74304762D01*
X93516666Y-74257143D01*
X93583333Y-74114286D01*
X93616666Y-73923810D01*
X93616666Y-73542857D01*
X93583333Y-73447619D01*
X93550000Y-73400000D01*
X93483333Y-73352381D01*
X93350000Y-73352381D01*
X93283333Y-73400000D01*
X93250000Y-73447619D01*
X93216666Y-73542857D01*
X93216666Y-73780952D01*
X93250000Y-73876190D01*
X93283333Y-73923810D01*
X93350000Y-73971429D01*
X93483333Y-73971429D01*
X93550000Y-73923810D01*
X93583333Y-73876190D01*
X93616666Y-73780952D01*
X77627143Y-98846666D02*
X77674762Y-98880000D01*
X77722381Y-98980000D01*
X77722381Y-99046666D01*
X77674762Y-99146666D01*
X77579524Y-99213333D01*
X77484286Y-99246666D01*
X77293810Y-99280000D01*
X77150952Y-99280000D01*
X76960476Y-99246666D01*
X76865238Y-99213333D01*
X76770000Y-99146666D01*
X76722381Y-99046666D01*
X76722381Y-98980000D01*
X76770000Y-98880000D01*
X76817619Y-98846666D01*
X76722381Y-98213333D02*
X76722381Y-98546666D01*
X77198571Y-98580000D01*
X77150952Y-98546666D01*
X77103333Y-98480000D01*
X77103333Y-98313333D01*
X77150952Y-98246666D01*
X77198571Y-98213333D01*
X77293810Y-98180000D01*
X77531905Y-98180000D01*
X77627143Y-98213333D01*
X77674762Y-98246666D01*
X77722381Y-98313333D01*
X77722381Y-98480000D01*
X77674762Y-98546666D01*
X77627143Y-98580000D01*
X87002381Y-101043333D02*
X87811905Y-101043333D01*
X87907143Y-101010000D01*
X87954762Y-100976667D01*
X88002381Y-100910000D01*
X88002381Y-100776667D01*
X87954762Y-100710000D01*
X87907143Y-100676667D01*
X87811905Y-100643333D01*
X87002381Y-100643333D01*
X87002381Y-100376667D02*
X87002381Y-99943334D01*
X87383333Y-100176667D01*
X87383333Y-100076667D01*
X87430952Y-100010000D01*
X87478571Y-99976667D01*
X87573810Y-99943334D01*
X87811905Y-99943334D01*
X87907143Y-99976667D01*
X87954762Y-100010000D01*
X88002381Y-100076667D01*
X88002381Y-100276667D01*
X87954762Y-100343334D01*
X87907143Y-100376667D01*
X90716667Y-54152381D02*
X91116667Y-54152381D01*
X90916667Y-55152381D02*
X90916667Y-54152381D01*
X91350000Y-55152381D02*
X91350000Y-54152381D01*
X91616666Y-54152381D01*
X91683333Y-54200000D01*
X91716666Y-54247619D01*
X91750000Y-54342857D01*
X91750000Y-54485714D01*
X91716666Y-54580952D01*
X91683333Y-54628571D01*
X91616666Y-54676190D01*
X91350000Y-54676190D01*
X92150000Y-54580952D02*
X92083333Y-54533333D01*
X92050000Y-54485714D01*
X92016666Y-54390476D01*
X92016666Y-54342857D01*
X92050000Y-54247619D01*
X92083333Y-54200000D01*
X92150000Y-54152381D01*
X92283333Y-54152381D01*
X92350000Y-54200000D01*
X92383333Y-54247619D01*
X92416666Y-54342857D01*
X92416666Y-54390476D01*
X92383333Y-54485714D01*
X92350000Y-54533333D01*
X92283333Y-54580952D01*
X92150000Y-54580952D01*
X92083333Y-54628571D01*
X92050000Y-54676190D01*
X92016666Y-54771429D01*
X92016666Y-54961905D01*
X92050000Y-55057143D01*
X92083333Y-55104762D01*
X92150000Y-55152381D01*
X92283333Y-55152381D01*
X92350000Y-55104762D01*
X92383333Y-55057143D01*
X92416666Y-54961905D01*
X92416666Y-54771429D01*
X92383333Y-54676190D01*
X92350000Y-54628571D01*
X92283333Y-54580952D01*
X90716667Y-50652381D02*
X91116667Y-50652381D01*
X90916667Y-51652381D02*
X90916667Y-50652381D01*
X91350000Y-51652381D02*
X91350000Y-50652381D01*
X91616666Y-50652381D01*
X91683333Y-50700000D01*
X91716666Y-50747619D01*
X91750000Y-50842857D01*
X91750000Y-50985714D01*
X91716666Y-51080952D01*
X91683333Y-51128571D01*
X91616666Y-51176190D01*
X91350000Y-51176190D01*
X91983333Y-50652381D02*
X92450000Y-50652381D01*
X92150000Y-51652381D01*
X62113334Y-68882381D02*
X62513334Y-68882381D01*
X62313334Y-69882381D02*
X62313334Y-68882381D01*
X62746667Y-69882381D02*
X62746667Y-68882381D01*
X63013333Y-68882381D01*
X63080000Y-68930000D01*
X63113333Y-68977619D01*
X63146667Y-69072857D01*
X63146667Y-69215714D01*
X63113333Y-69310952D01*
X63080000Y-69358571D01*
X63013333Y-69406190D01*
X62746667Y-69406190D01*
X63813333Y-69882381D02*
X63413333Y-69882381D01*
X63613333Y-69882381D02*
X63613333Y-68882381D01*
X63546667Y-69025238D01*
X63480000Y-69120476D01*
X63413333Y-69168095D01*
X64246667Y-68882381D02*
X64313334Y-68882381D01*
X64380000Y-68930000D01*
X64413334Y-68977619D01*
X64446667Y-69072857D01*
X64480000Y-69263333D01*
X64480000Y-69501429D01*
X64446667Y-69691905D01*
X64413334Y-69787143D01*
X64380000Y-69834762D01*
X64313334Y-69882381D01*
X64246667Y-69882381D01*
X64180000Y-69834762D01*
X64146667Y-69787143D01*
X64113334Y-69691905D01*
X64080000Y-69501429D01*
X64080000Y-69263333D01*
X64113334Y-69072857D01*
X64146667Y-68977619D01*
X64180000Y-68930000D01*
X64246667Y-68882381D01*
X55746667Y-68882381D02*
X56146667Y-68882381D01*
X55946667Y-69882381D02*
X55946667Y-68882381D01*
X56380000Y-69882381D02*
X56380000Y-68882381D01*
X56646666Y-68882381D01*
X56713333Y-68930000D01*
X56746666Y-68977619D01*
X56780000Y-69072857D01*
X56780000Y-69215714D01*
X56746666Y-69310952D01*
X56713333Y-69358571D01*
X56646666Y-69406190D01*
X56380000Y-69406190D01*
X57113333Y-69882381D02*
X57246666Y-69882381D01*
X57313333Y-69834762D01*
X57346666Y-69787143D01*
X57413333Y-69644286D01*
X57446666Y-69453810D01*
X57446666Y-69072857D01*
X57413333Y-68977619D01*
X57380000Y-68930000D01*
X57313333Y-68882381D01*
X57180000Y-68882381D01*
X57113333Y-68930000D01*
X57080000Y-68977619D01*
X57046666Y-69072857D01*
X57046666Y-69310952D01*
X57080000Y-69406190D01*
X57113333Y-69453810D01*
X57180000Y-69501429D01*
X57313333Y-69501429D01*
X57380000Y-69453810D01*
X57413333Y-69406190D01*
X57446666Y-69310952D01*
X79616667Y-103752381D02*
X80016667Y-103752381D01*
X79816667Y-104752381D02*
X79816667Y-103752381D01*
X80250000Y-104752381D02*
X80250000Y-103752381D01*
X80516666Y-103752381D01*
X80583333Y-103800000D01*
X80616666Y-103847619D01*
X80650000Y-103942857D01*
X80650000Y-104085714D01*
X80616666Y-104180952D01*
X80583333Y-104228571D01*
X80516666Y-104276190D01*
X80250000Y-104276190D01*
X80883333Y-103752381D02*
X81316666Y-103752381D01*
X81083333Y-104133333D01*
X81183333Y-104133333D01*
X81250000Y-104180952D01*
X81283333Y-104228571D01*
X81316666Y-104323810D01*
X81316666Y-104561905D01*
X81283333Y-104657143D01*
X81250000Y-104704762D01*
X81183333Y-104752381D01*
X80983333Y-104752381D01*
X80916666Y-104704762D01*
X80883333Y-104657143D01*
X97816667Y-97352381D02*
X98216667Y-97352381D01*
X98016667Y-98352381D02*
X98016667Y-97352381D01*
X98450000Y-98352381D02*
X98450000Y-97352381D01*
X98716666Y-97352381D01*
X98783333Y-97400000D01*
X98816666Y-97447619D01*
X98850000Y-97542857D01*
X98850000Y-97685714D01*
X98816666Y-97780952D01*
X98783333Y-97828571D01*
X98716666Y-97876190D01*
X98450000Y-97876190D01*
X99116666Y-97447619D02*
X99150000Y-97400000D01*
X99216666Y-97352381D01*
X99383333Y-97352381D01*
X99450000Y-97400000D01*
X99483333Y-97447619D01*
X99516666Y-97542857D01*
X99516666Y-97638095D01*
X99483333Y-97780952D01*
X99083333Y-98352381D01*
X99516666Y-98352381D01*
X68825667Y-95152381D02*
X69225667Y-95152381D01*
X69025667Y-96152381D02*
X69025667Y-95152381D01*
X69459000Y-96152381D02*
X69459000Y-95152381D01*
X69725666Y-95152381D01*
X69792333Y-95200000D01*
X69825666Y-95247619D01*
X69859000Y-95342857D01*
X69859000Y-95485714D01*
X69825666Y-95580952D01*
X69792333Y-95628571D01*
X69725666Y-95676190D01*
X69459000Y-95676190D01*
X70459000Y-95485714D02*
X70459000Y-96152381D01*
X70292333Y-95104762D02*
X70125666Y-95819048D01*
X70559000Y-95819048D01*
X68052381Y-109083333D02*
X68052381Y-108683333D01*
X69052381Y-108883333D02*
X68052381Y-108883333D01*
X69052381Y-108450000D02*
X68052381Y-108450000D01*
X68052381Y-108183334D01*
X68100000Y-108116667D01*
X68147619Y-108083334D01*
X68242857Y-108050000D01*
X68385714Y-108050000D01*
X68480952Y-108083334D01*
X68528571Y-108116667D01*
X68576190Y-108183334D01*
X68576190Y-108450000D01*
X69052381Y-107383334D02*
X69052381Y-107783334D01*
X69052381Y-107583334D02*
X68052381Y-107583334D01*
X68195238Y-107650000D01*
X68290476Y-107716667D01*
X68338095Y-107783334D01*
X103952381Y-117983333D02*
X103952381Y-117583333D01*
X104952381Y-117783333D02*
X103952381Y-117783333D01*
X104952381Y-117350000D02*
X103952381Y-117350000D01*
X103952381Y-117083334D01*
X104000000Y-117016667D01*
X104047619Y-116983334D01*
X104142857Y-116950000D01*
X104285714Y-116950000D01*
X104380952Y-116983334D01*
X104428571Y-117016667D01*
X104476190Y-117083334D01*
X104476190Y-117350000D01*
X103952381Y-116350000D02*
X103952381Y-116483334D01*
X104000000Y-116550000D01*
X104047619Y-116583334D01*
X104190476Y-116650000D01*
X104380952Y-116683334D01*
X104761905Y-116683334D01*
X104857143Y-116650000D01*
X104904762Y-116616667D01*
X104952381Y-116550000D01*
X104952381Y-116416667D01*
X104904762Y-116350000D01*
X104857143Y-116316667D01*
X104761905Y-116283334D01*
X104523810Y-116283334D01*
X104428571Y-116316667D01*
X104380952Y-116350000D01*
X104333333Y-116416667D01*
X104333333Y-116550000D01*
X104380952Y-116616667D01*
X104428571Y-116650000D01*
X104523810Y-116683334D01*
X110116667Y-101452381D02*
X110516667Y-101452381D01*
X110316667Y-102452381D02*
X110316667Y-101452381D01*
X110750000Y-102452381D02*
X110750000Y-101452381D01*
X111016666Y-101452381D01*
X111083333Y-101500000D01*
X111116666Y-101547619D01*
X111150000Y-101642857D01*
X111150000Y-101785714D01*
X111116666Y-101880952D01*
X111083333Y-101928571D01*
X111016666Y-101976190D01*
X110750000Y-101976190D01*
X111783333Y-101452381D02*
X111450000Y-101452381D01*
X111416666Y-101928571D01*
X111450000Y-101880952D01*
X111516666Y-101833333D01*
X111683333Y-101833333D01*
X111750000Y-101880952D01*
X111783333Y-101928571D01*
X111816666Y-102023810D01*
X111816666Y-102261905D01*
X111783333Y-102357143D01*
X111750000Y-102404762D01*
X111683333Y-102452381D01*
X111516666Y-102452381D01*
X111450000Y-102404762D01*
X111416666Y-102357143D01*
%LPC*%
D20*
X60300000Y-54000000D03*
X65300000Y-54000000D03*
D21*
X116000000Y-54000000D03*
D22*
X116000000Y-116000000D03*
X54000000Y-54000000D03*
X54000000Y-116000000D03*
D23*
X80600000Y-109800000D03*
X80600000Y-107260000D03*
X80600000Y-112340000D03*
D24*
X97364000Y-109800000D03*
D25*
X116550000Y-105655000D03*
D20*
X116550000Y-108195000D03*
D25*
X105655000Y-114225000D03*
D20*
X108195000Y-114225000D03*
D26*
X99540000Y-101600000D03*
X94460000Y-101589840D03*
D27*
X113247500Y-61556640D03*
X114200000Y-59443360D03*
X115152500Y-61556640D03*
D28*
X76543360Y-92947500D03*
X78656640Y-93900000D03*
X76543360Y-94852500D03*
X87943360Y-92947500D03*
X90056640Y-93900000D03*
X87943360Y-94852500D03*
X95756640Y-94852500D03*
X93643360Y-93900000D03*
X95756640Y-92947500D03*
X80956640Y-77052500D03*
X78843360Y-76100000D03*
X80956640Y-75147500D03*
X104516640Y-100752500D03*
X102403360Y-99800000D03*
X104516640Y-98847500D03*
D20*
X68300000Y-54000000D03*
X73300000Y-54000000D03*
D29*
X86475000Y-58250000D03*
X86475000Y-52850000D03*
X85225000Y-58250000D03*
X83975000Y-58250000D03*
X82725000Y-58250000D03*
X85225000Y-52850000D03*
X83975000Y-52850000D03*
X82725000Y-52850000D03*
D25*
X75940000Y-112400000D03*
D20*
X70860000Y-112400000D03*
D30*
X72000000Y-60690000D03*
D31*
X72000000Y-63230000D03*
X72000000Y-65770000D03*
X72000000Y-68310000D03*
D32*
X112025000Y-110236000D03*
D33*
X105675000Y-107950000D03*
D32*
X112025000Y-105664000D03*
D34*
X101900000Y-94750000D03*
X101900000Y-84500000D03*
D35*
X116750000Y-101100000D03*
X116750000Y-77900000D03*
D36*
X110055000Y-72100000D03*
X111255000Y-71300000D03*
X110055000Y-70500000D03*
X111255000Y-69700000D03*
X110055000Y-68900000D03*
D37*
X110955000Y-74200000D03*
D38*
X110955000Y-66800000D03*
X115705000Y-74200000D03*
X115705000Y-66800000D03*
D39*
X107000000Y-63740000D03*
D40*
X107000000Y-57490000D03*
X102200000Y-60740000D03*
D41*
X52000000Y-105000000D03*
X59800000Y-99800000D03*
X58400000Y-102500000D03*
D34*
X63000000Y-109000000D03*
X55400000Y-109500000D03*
D20*
X62500000Y-92000000D03*
X57500000Y-92000000D03*
X57500000Y-77500000D03*
X60000000Y-77500000D03*
X62500000Y-77500000D03*
D42*
X54400000Y-85000000D03*
X65600000Y-85000000D03*
D43*
X80750000Y-64470000D03*
X80750000Y-64970000D03*
X80750000Y-65470000D03*
X80750000Y-65970000D03*
X80750000Y-66470000D03*
X80750000Y-66970000D03*
X80750000Y-67470000D03*
X80750000Y-67970000D03*
X80750000Y-68470000D03*
X80750000Y-68970000D03*
X80750000Y-69470000D03*
X80750000Y-69970000D03*
D44*
X82250000Y-71470000D03*
X82750000Y-71470000D03*
X83250000Y-71470000D03*
X83750000Y-71470000D03*
X84250000Y-71470000D03*
X84750000Y-71470000D03*
X85250000Y-71470000D03*
X85750000Y-71470000D03*
X86250000Y-71470000D03*
X86750000Y-71470000D03*
X87250000Y-71470000D03*
X87750000Y-71470000D03*
D43*
X89250000Y-69970000D03*
X89250000Y-69470000D03*
X89250000Y-68970000D03*
X89250000Y-68470000D03*
X89250000Y-67970000D03*
X89250000Y-67470000D03*
X89250000Y-66970000D03*
X89250000Y-66470000D03*
X89250000Y-65970000D03*
X89250000Y-65470000D03*
X89250000Y-64970000D03*
X89250000Y-64470000D03*
D44*
X87750000Y-62970000D03*
X87250000Y-62970000D03*
X86750000Y-62970000D03*
X86250000Y-62970000D03*
X85750000Y-62970000D03*
X85250000Y-62970000D03*
X84750000Y-62970000D03*
X84250000Y-62970000D03*
X83750000Y-62970000D03*
X83250000Y-62970000D03*
X82750000Y-62970000D03*
X82250000Y-62970000D03*
D45*
X96030000Y-52110000D03*
D46*
X98570000Y-52110000D03*
X96030000Y-54650000D03*
X98570000Y-54650000D03*
X96030000Y-57190000D03*
X98570000Y-57190000D03*
X96030000Y-59730000D03*
X98570000Y-59730000D03*
X96030000Y-62270000D03*
X98570000Y-62270000D03*
X96030000Y-64810000D03*
X98570000Y-64810000D03*
X96030000Y-67350000D03*
X98570000Y-67350000D03*
X96030000Y-69890000D03*
X98570000Y-69890000D03*
D47*
X76110000Y-90080000D03*
D48*
X78650000Y-90080000D03*
D49*
X81190000Y-90080000D03*
X83730000Y-90080000D03*
X86270000Y-90080000D03*
X88810000Y-90080000D03*
X91350000Y-90080000D03*
X93890000Y-90080000D03*
X93890000Y-79920000D03*
D47*
X91350000Y-79920000D03*
X88810000Y-79920000D03*
D49*
X86270000Y-79920000D03*
X83730000Y-79920000D03*
D47*
X81190000Y-79920000D03*
D49*
X78650000Y-79920000D03*
X76110000Y-79920000D03*
D50*
X61630000Y-75180000D03*
X61630000Y-73380000D03*
D51*
X72400000Y-104600000D03*
X74200000Y-104600000D03*
D50*
X54930000Y-73380000D03*
X54930000Y-75180000D03*
D51*
X65900000Y-58280300D03*
X67700000Y-58200000D03*
X69100000Y-104600000D03*
X70900000Y-104600000D03*
D52*
X74250000Y-67300000D03*
X75750000Y-67300000D03*
X74250000Y-65700000D03*
X75750000Y-65700000D03*
D50*
X75000000Y-97200000D03*
X75000000Y-99000000D03*
D51*
X93900000Y-67175000D03*
X92100000Y-67175000D03*
X93900000Y-65575000D03*
X92100000Y-65575000D03*
D50*
X75500000Y-52200000D03*
X75500000Y-54000000D03*
D51*
X92100000Y-61025000D03*
X93900000Y-61025000D03*
X92100000Y-59075000D03*
X93900000Y-59075000D03*
D50*
X56630000Y-75180000D03*
X56630000Y-73380000D03*
D51*
X84100000Y-60200000D03*
X85900000Y-60200000D03*
X82600000Y-60200000D03*
X80800000Y-60200000D03*
D50*
X58330000Y-75180000D03*
X58330000Y-73380000D03*
X65030000Y-75180000D03*
X65030000Y-73380000D03*
X63330000Y-75180000D03*
X63330000Y-73380000D03*
D51*
X59100000Y-94200000D03*
X60900000Y-94200000D03*
D50*
X76110000Y-77010000D03*
X76110000Y-75210000D03*
D53*
X62980000Y-116640000D03*
X62980000Y-112640000D03*
D54*
X103800000Y-102850000D03*
X107800000Y-102850000D03*
D25*
X68570000Y-101400000D03*
D20*
X66030000Y-101400000D03*
D51*
X75700000Y-104600000D03*
X77500000Y-104600000D03*
D55*
X75601240Y-102675360D03*
X75601240Y-102025120D03*
X75601240Y-101374880D03*
X75601240Y-100724640D03*
X70998760Y-100724640D03*
X70998760Y-101374880D03*
X70998760Y-102025120D03*
X70998760Y-102675360D03*
D56*
X77350000Y-66200000D03*
X78450000Y-66200000D03*
D57*
X77900000Y-56400000D03*
D28*
X87943360Y-75147500D03*
X90056640Y-76100000D03*
X87943360Y-77052500D03*
X91643360Y-75147500D03*
X93756640Y-76100000D03*
X91643360Y-77052500D03*
D50*
X82780000Y-99640000D03*
X82780000Y-97840000D03*
D25*
X78950000Y-100000000D03*
D20*
X78950000Y-97460000D03*
D58*
X84850000Y-102385000D03*
X90250000Y-102385000D03*
X84850000Y-101135000D03*
X84850000Y-99885000D03*
X84850000Y-98635000D03*
X90250000Y-101135000D03*
X90250000Y-99885000D03*
X90250000Y-98635000D03*
D59*
X89980000Y-56500000D03*
X93220000Y-56500000D03*
X89980000Y-53000000D03*
X93220000Y-53000000D03*
X61710000Y-71230000D03*
X64950000Y-71230000D03*
X55010000Y-71230000D03*
X58250000Y-71230000D03*
X82120000Y-102500000D03*
X78880000Y-102500000D03*
X93150000Y-97910000D03*
X96390000Y-97910000D03*
X71329000Y-93900000D03*
X68089000Y-93900000D03*
D60*
X66800000Y-106580000D03*
X66800000Y-109820000D03*
X102650000Y-113905000D03*
X102650000Y-117145000D03*
D59*
X107580000Y-100100000D03*
X110820000Y-100100000D03*
D50*
X72920000Y-97200000D03*
X72920000Y-99000000D03*
X71000000Y-99000000D03*
X71000000Y-97200000D03*
D51*
X67700000Y-60690000D03*
X65900000Y-60690000D03*
X69100000Y-106500000D03*
X70900000Y-106500000D03*
X77500000Y-106490000D03*
X75700000Y-106490000D03*
D50*
X81190000Y-92990000D03*
X81190000Y-94790000D03*
X83730000Y-92990000D03*
X83730000Y-94790000D03*
X83730000Y-77010000D03*
X83730000Y-75210000D03*
X86270000Y-92990000D03*
X86270000Y-94790000D03*
X86270000Y-77010000D03*
X86270000Y-75210000D03*
X91700000Y-93000000D03*
X91700000Y-94800000D03*
X95400000Y-77000000D03*
X95400000Y-75200000D03*
M02*
