%FSLAX46Y46*%
G04 Gerber Fmt 4.6, Leading zero omitted, Abs format (unit mm)*
G04 Created by KiCad (PCBNEW (2014-08-24 BZR 5094)-product) date Mon 25 Aug 2014 20:36:51 CEST*
%MOMM*%
G01*
G04 APERTURE LIST*
%ADD10C,0.170000*%
%ADD11C,0.100000*%
%ADD12C,0.150000*%
%ADD13C,2.000000*%
%ADD14C,4.300000*%
%ADD15C,3.200000*%
%ADD16O,3.500000X2.000000*%
%ADD17C,3.800000*%
%ADD18R,2.000000X2.000000*%
%ADD19C,1.501140*%
%ADD20R,2.000000X1.700000*%
%ADD21O,2.000000X1.700000*%
%ADD22C,3.000000*%
%ADD23C,3.500000*%
%ADD24C,1.195000*%
%ADD25C,1.900000*%
%ADD26C,2.800000*%
%ADD27C,5.050000*%
%ADD28C,4.500000*%
%ADD29C,2.700000*%
%ADD30C,4.000000*%
%ADD31R,1.700000X1.700000*%
%ADD32O,1.700000X1.700000*%
%ADD33C,0.900000*%
%ADD34R,1.400000X1.400000*%
%ADD35C,1.400000*%
%ADD36R,1.100000X1.300000*%
%ADD37R,1.300000X1.100000*%
%ADD38O,0.750000X1.250000*%
%ADD39R,1.000760X0.599440*%
%ADD40O,2.500000X1.800000*%
%ADD41O,1.800000X2.500000*%
G04 APERTURE END LIST*
D10*
D11*
X120000000Y-54000000D02*
G75*
G03X116000000Y-50000000I-4000000J0D01*
G74*
G01*
X116000000Y-120000000D02*
G75*
G03X120000000Y-116000000I0J4000000D01*
G74*
G01*
X50000000Y-116000000D02*
G75*
G03X54000000Y-120000000I4000000J0D01*
G74*
G01*
X54000000Y-50000000D02*
G75*
G03X50000000Y-54000000I0J-4000000D01*
G74*
G01*
X116000000Y-50000000D02*
X54000000Y-50000000D01*
X120000000Y-116000000D02*
X120000000Y-54000000D01*
X54000000Y-120000000D02*
X116000000Y-120000000D01*
X50000000Y-54000000D02*
X50000000Y-116000000D01*
D12*
X76300000Y-74600000D02*
X75400000Y-74600000D01*
X75400000Y-74600000D02*
X75400000Y-75400000D01*
X76300000Y-77600000D02*
X75400000Y-77600000D01*
X75400000Y-77600000D02*
X75400000Y-76800000D01*
X76800000Y-76400000D02*
X76800000Y-75800000D01*
X81400000Y-92400000D02*
X80500000Y-92400000D01*
X80500000Y-92400000D02*
X80500000Y-93200000D01*
X81400000Y-95400000D02*
X80500000Y-95400000D01*
X80500000Y-95400000D02*
X80500000Y-94600000D01*
X81900000Y-94200000D02*
X81900000Y-93600000D01*
X83000000Y-85300000D02*
X82100000Y-85300000D01*
X82100000Y-85300000D02*
X82100000Y-86100000D01*
X83000000Y-88300000D02*
X82100000Y-88300000D01*
X82100000Y-88300000D02*
X82100000Y-87500000D01*
X83500000Y-87100000D02*
X83500000Y-86500000D01*
X83900000Y-74600000D02*
X83000000Y-74600000D01*
X83000000Y-74600000D02*
X83000000Y-75400000D01*
X83900000Y-77600000D02*
X83000000Y-77600000D01*
X83000000Y-77600000D02*
X83000000Y-76800000D01*
X84400000Y-76400000D02*
X84400000Y-75800000D01*
X86500000Y-92400000D02*
X85600000Y-92400000D01*
X85600000Y-92400000D02*
X85600000Y-93200000D01*
X86500000Y-95400000D02*
X85600000Y-95400000D01*
X85600000Y-95400000D02*
X85600000Y-94600000D01*
X87000000Y-94200000D02*
X87000000Y-93600000D01*
X91900000Y-92400000D02*
X91000000Y-92400000D01*
X91000000Y-92400000D02*
X91000000Y-93200000D01*
X91900000Y-95400000D02*
X91000000Y-95400000D01*
X91000000Y-95400000D02*
X91000000Y-94600000D01*
X92400000Y-94200000D02*
X92400000Y-93600000D01*
D10*
X76516667Y-74447619D02*
X76583333Y-74400000D01*
X76650000Y-74304762D01*
X76750000Y-74161905D01*
X76816667Y-74114286D01*
X76883333Y-74114286D01*
X76850000Y-74352381D02*
X76916667Y-74304762D01*
X76983333Y-74209524D01*
X77016667Y-74019048D01*
X77016667Y-73685714D01*
X76983333Y-73495238D01*
X76916667Y-73400000D01*
X76850000Y-73352381D01*
X76716667Y-73352381D01*
X76650000Y-73400000D01*
X76583333Y-73495238D01*
X76550000Y-73685714D01*
X76550000Y-74019048D01*
X76583333Y-74209524D01*
X76650000Y-74304762D01*
X76716667Y-74352381D01*
X76850000Y-74352381D01*
X76250000Y-74352381D02*
X76250000Y-73352381D01*
X75983334Y-73352381D01*
X75916667Y-73400000D01*
X75883334Y-73447619D01*
X75850000Y-73542857D01*
X75850000Y-73685714D01*
X75883334Y-73780952D01*
X75916667Y-73828571D01*
X75983334Y-73876190D01*
X76250000Y-73876190D01*
X75183334Y-74352381D02*
X75583334Y-74352381D01*
X75383334Y-74352381D02*
X75383334Y-73352381D01*
X75450000Y-73495238D01*
X75516667Y-73590476D01*
X75583334Y-73638095D01*
X81616667Y-96747619D02*
X81683333Y-96700000D01*
X81750000Y-96604762D01*
X81850000Y-96461905D01*
X81916667Y-96414286D01*
X81983333Y-96414286D01*
X81950000Y-96652381D02*
X82016667Y-96604762D01*
X82083333Y-96509524D01*
X82116667Y-96319048D01*
X82116667Y-95985714D01*
X82083333Y-95795238D01*
X82016667Y-95700000D01*
X81950000Y-95652381D01*
X81816667Y-95652381D01*
X81750000Y-95700000D01*
X81683333Y-95795238D01*
X81650000Y-95985714D01*
X81650000Y-96319048D01*
X81683333Y-96509524D01*
X81750000Y-96604762D01*
X81816667Y-96652381D01*
X81950000Y-96652381D01*
X81350000Y-96652381D02*
X81350000Y-95652381D01*
X81083334Y-95652381D01*
X81016667Y-95700000D01*
X80983334Y-95747619D01*
X80950000Y-95842857D01*
X80950000Y-95985714D01*
X80983334Y-96080952D01*
X81016667Y-96128571D01*
X81083334Y-96176190D01*
X81350000Y-96176190D01*
X80683334Y-95747619D02*
X80650000Y-95700000D01*
X80583334Y-95652381D01*
X80416667Y-95652381D01*
X80350000Y-95700000D01*
X80316667Y-95747619D01*
X80283334Y-95842857D01*
X80283334Y-95938095D01*
X80316667Y-96080952D01*
X80716667Y-96652381D01*
X80283334Y-96652381D01*
X83216667Y-85047619D02*
X83283333Y-85000000D01*
X83350000Y-84904762D01*
X83450000Y-84761905D01*
X83516667Y-84714286D01*
X83583333Y-84714286D01*
X83550000Y-84952381D02*
X83616667Y-84904762D01*
X83683333Y-84809524D01*
X83716667Y-84619048D01*
X83716667Y-84285714D01*
X83683333Y-84095238D01*
X83616667Y-84000000D01*
X83550000Y-83952381D01*
X83416667Y-83952381D01*
X83350000Y-84000000D01*
X83283333Y-84095238D01*
X83250000Y-84285714D01*
X83250000Y-84619048D01*
X83283333Y-84809524D01*
X83350000Y-84904762D01*
X83416667Y-84952381D01*
X83550000Y-84952381D01*
X82950000Y-84952381D02*
X82950000Y-83952381D01*
X82683334Y-83952381D01*
X82616667Y-84000000D01*
X82583334Y-84047619D01*
X82550000Y-84142857D01*
X82550000Y-84285714D01*
X82583334Y-84380952D01*
X82616667Y-84428571D01*
X82683334Y-84476190D01*
X82950000Y-84476190D01*
X82316667Y-83952381D02*
X81883334Y-83952381D01*
X82116667Y-84333333D01*
X82016667Y-84333333D01*
X81950000Y-84380952D01*
X81916667Y-84428571D01*
X81883334Y-84523810D01*
X81883334Y-84761905D01*
X81916667Y-84857143D01*
X81950000Y-84904762D01*
X82016667Y-84952381D01*
X82216667Y-84952381D01*
X82283334Y-84904762D01*
X82316667Y-84857143D01*
X84116667Y-74447619D02*
X84183333Y-74400000D01*
X84250000Y-74304762D01*
X84350000Y-74161905D01*
X84416667Y-74114286D01*
X84483333Y-74114286D01*
X84450000Y-74352381D02*
X84516667Y-74304762D01*
X84583333Y-74209524D01*
X84616667Y-74019048D01*
X84616667Y-73685714D01*
X84583333Y-73495238D01*
X84516667Y-73400000D01*
X84450000Y-73352381D01*
X84316667Y-73352381D01*
X84250000Y-73400000D01*
X84183333Y-73495238D01*
X84150000Y-73685714D01*
X84150000Y-74019048D01*
X84183333Y-74209524D01*
X84250000Y-74304762D01*
X84316667Y-74352381D01*
X84450000Y-74352381D01*
X83850000Y-74352381D02*
X83850000Y-73352381D01*
X83583334Y-73352381D01*
X83516667Y-73400000D01*
X83483334Y-73447619D01*
X83450000Y-73542857D01*
X83450000Y-73685714D01*
X83483334Y-73780952D01*
X83516667Y-73828571D01*
X83583334Y-73876190D01*
X83850000Y-73876190D01*
X82850000Y-73685714D02*
X82850000Y-74352381D01*
X83016667Y-73304762D02*
X83183334Y-74019048D01*
X82750000Y-74019048D01*
X86716667Y-96747619D02*
X86783333Y-96700000D01*
X86850000Y-96604762D01*
X86950000Y-96461905D01*
X87016667Y-96414286D01*
X87083333Y-96414286D01*
X87050000Y-96652381D02*
X87116667Y-96604762D01*
X87183333Y-96509524D01*
X87216667Y-96319048D01*
X87216667Y-95985714D01*
X87183333Y-95795238D01*
X87116667Y-95700000D01*
X87050000Y-95652381D01*
X86916667Y-95652381D01*
X86850000Y-95700000D01*
X86783333Y-95795238D01*
X86750000Y-95985714D01*
X86750000Y-96319048D01*
X86783333Y-96509524D01*
X86850000Y-96604762D01*
X86916667Y-96652381D01*
X87050000Y-96652381D01*
X86450000Y-96652381D02*
X86450000Y-95652381D01*
X86183334Y-95652381D01*
X86116667Y-95700000D01*
X86083334Y-95747619D01*
X86050000Y-95842857D01*
X86050000Y-95985714D01*
X86083334Y-96080952D01*
X86116667Y-96128571D01*
X86183334Y-96176190D01*
X86450000Y-96176190D01*
X85416667Y-95652381D02*
X85750000Y-95652381D01*
X85783334Y-96128571D01*
X85750000Y-96080952D01*
X85683334Y-96033333D01*
X85516667Y-96033333D01*
X85450000Y-96080952D01*
X85416667Y-96128571D01*
X85383334Y-96223810D01*
X85383334Y-96461905D01*
X85416667Y-96557143D01*
X85450000Y-96604762D01*
X85516667Y-96652381D01*
X85683334Y-96652381D01*
X85750000Y-96604762D01*
X85783334Y-96557143D01*
X92116667Y-96747619D02*
X92183333Y-96700000D01*
X92250000Y-96604762D01*
X92350000Y-96461905D01*
X92416667Y-96414286D01*
X92483333Y-96414286D01*
X92450000Y-96652381D02*
X92516667Y-96604762D01*
X92583333Y-96509524D01*
X92616667Y-96319048D01*
X92616667Y-95985714D01*
X92583333Y-95795238D01*
X92516667Y-95700000D01*
X92450000Y-95652381D01*
X92316667Y-95652381D01*
X92250000Y-95700000D01*
X92183333Y-95795238D01*
X92150000Y-95985714D01*
X92150000Y-96319048D01*
X92183333Y-96509524D01*
X92250000Y-96604762D01*
X92316667Y-96652381D01*
X92450000Y-96652381D01*
X91850000Y-96652381D02*
X91850000Y-95652381D01*
X91583334Y-95652381D01*
X91516667Y-95700000D01*
X91483334Y-95747619D01*
X91450000Y-95842857D01*
X91450000Y-95985714D01*
X91483334Y-96080952D01*
X91516667Y-96128571D01*
X91583334Y-96176190D01*
X91850000Y-96176190D01*
X91050000Y-96080952D02*
X91116667Y-96033333D01*
X91150000Y-95985714D01*
X91183334Y-95890476D01*
X91183334Y-95842857D01*
X91150000Y-95747619D01*
X91116667Y-95700000D01*
X91050000Y-95652381D01*
X90916667Y-95652381D01*
X90850000Y-95700000D01*
X90816667Y-95747619D01*
X90783334Y-95842857D01*
X90783334Y-95890476D01*
X90816667Y-95985714D01*
X90850000Y-96033333D01*
X90916667Y-96080952D01*
X91050000Y-96080952D01*
X91116667Y-96128571D01*
X91150000Y-96176190D01*
X91183334Y-96271429D01*
X91183334Y-96461905D01*
X91150000Y-96557143D01*
X91116667Y-96604762D01*
X91050000Y-96652381D01*
X90916667Y-96652381D01*
X90850000Y-96604762D01*
X90816667Y-96557143D01*
X90783334Y-96461905D01*
X90783334Y-96271429D01*
X90816667Y-96176190D01*
X90850000Y-96128571D01*
X90916667Y-96080952D01*
%LPC*%
D13*
X60300000Y-54000000D03*
X65300000Y-54000000D03*
D14*
X116000000Y-54000000D03*
D15*
X116000000Y-116000000D03*
X54000000Y-54000000D03*
X54000000Y-116000000D03*
D16*
X80600000Y-109800000D03*
X80600000Y-107260000D03*
X80600000Y-112340000D03*
D17*
X97364000Y-109800000D03*
D18*
X116550000Y-105655000D03*
D13*
X116550000Y-108195000D03*
D18*
X105655000Y-114225000D03*
D13*
X108195000Y-114225000D03*
D19*
X99540000Y-101600000D03*
X94460000Y-101589840D03*
D13*
X68300000Y-54000000D03*
X73300000Y-54000000D03*
D18*
X75940000Y-112400000D03*
D13*
X70860000Y-112400000D03*
D20*
X72000000Y-60690000D03*
D21*
X72000000Y-63230000D03*
X72000000Y-65770000D03*
X72000000Y-68310000D03*
D22*
X101900000Y-94750000D03*
X101900000Y-84500000D03*
D23*
X116750000Y-101100000D03*
X116750000Y-77900000D03*
D24*
X110055000Y-72100000D03*
X111255000Y-71300000D03*
X110055000Y-70500000D03*
X111255000Y-69700000D03*
X110055000Y-68900000D03*
D25*
X110955000Y-74200000D03*
D26*
X110955000Y-66800000D03*
X115705000Y-74200000D03*
X115705000Y-66800000D03*
D27*
X107000000Y-63740000D03*
D28*
X107000000Y-57490000D03*
X102200000Y-60740000D03*
D29*
X52000000Y-105000000D03*
X59800000Y-99800000D03*
X58400000Y-102500000D03*
D22*
X63000000Y-109000000D03*
X55400000Y-109500000D03*
D13*
X62500000Y-92000000D03*
X57500000Y-92000000D03*
X57500000Y-77500000D03*
X60000000Y-77500000D03*
X62500000Y-77500000D03*
D30*
X54400000Y-85000000D03*
X65600000Y-85000000D03*
D31*
X96030000Y-52110000D03*
D32*
X98570000Y-52110000D03*
X96030000Y-54650000D03*
X98570000Y-54650000D03*
X96030000Y-57190000D03*
X98570000Y-57190000D03*
X96030000Y-59730000D03*
X98570000Y-59730000D03*
X96030000Y-62270000D03*
X98570000Y-62270000D03*
X96030000Y-64810000D03*
X98570000Y-64810000D03*
X96030000Y-67350000D03*
X98570000Y-67350000D03*
X96030000Y-69890000D03*
X98570000Y-69890000D03*
D33*
X76110000Y-90080000D03*
D34*
X78650000Y-90080000D03*
D35*
X81190000Y-90080000D03*
X83730000Y-90080000D03*
X86270000Y-90080000D03*
X88810000Y-90080000D03*
X91350000Y-90080000D03*
X93890000Y-90080000D03*
X93890000Y-79920000D03*
D33*
X91350000Y-79920000D03*
X88810000Y-79920000D03*
D35*
X86270000Y-79920000D03*
X83730000Y-79920000D03*
D33*
X81190000Y-79920000D03*
D35*
X78650000Y-79920000D03*
X76110000Y-79920000D03*
D36*
X81650000Y-69950000D03*
X79850000Y-69950000D03*
X81650000Y-68200000D03*
X79850000Y-68200000D03*
X88350000Y-64700000D03*
X90150000Y-64700000D03*
X75700000Y-109800000D03*
X77500000Y-109800000D03*
D37*
X87500000Y-70600000D03*
X87500000Y-72400000D03*
X82500000Y-63850000D03*
X82500000Y-62050000D03*
D36*
X108775000Y-110275000D03*
X110575000Y-110275000D03*
D37*
X110575000Y-106075000D03*
X110575000Y-107875000D03*
X80750000Y-63850000D03*
X80750000Y-62050000D03*
D36*
X72800000Y-102000000D03*
X71000000Y-102000000D03*
D18*
X68570000Y-101400000D03*
D13*
X66030000Y-101400000D03*
D38*
X77350000Y-66200000D03*
X78450000Y-66200000D03*
D39*
X77156640Y-75147500D03*
X75043360Y-76100000D03*
X77156640Y-77052500D03*
X82256640Y-92947500D03*
X80143360Y-93900000D03*
X82256640Y-94852500D03*
X83856640Y-85847500D03*
X81743360Y-86800000D03*
X83856640Y-87752500D03*
X84756640Y-75147500D03*
X82643360Y-76100000D03*
X84756640Y-77052500D03*
X87356640Y-92947500D03*
X85243360Y-93900000D03*
X87356640Y-94852500D03*
X92756640Y-92947500D03*
X90643360Y-93900000D03*
X92756640Y-94852500D03*
D18*
X78950000Y-100000000D03*
D13*
X78950000Y-97460000D03*
D40*
X89980000Y-56500000D03*
X93220000Y-56500000D03*
X89980000Y-53000000D03*
X93220000Y-53000000D03*
X61710000Y-71230000D03*
X64950000Y-71230000D03*
X55010000Y-71230000D03*
X58250000Y-71230000D03*
X82120000Y-102500000D03*
X78880000Y-102500000D03*
X93150000Y-97910000D03*
X96390000Y-97910000D03*
X71329000Y-93900000D03*
X68089000Y-93900000D03*
D41*
X66800000Y-106580000D03*
X66800000Y-109820000D03*
X102650000Y-113905000D03*
X102650000Y-117145000D03*
D40*
X107580000Y-100100000D03*
X110820000Y-100100000D03*
D36*
X108110000Y-70500000D03*
X106310000Y-70500000D03*
X67850000Y-65770000D03*
X69650000Y-65770000D03*
X67850000Y-68310000D03*
X69650000Y-68310000D03*
M02*
