%FSLAX46Y46*%
G04 Gerber Fmt 4.6, Leading zero omitted, Abs format (unit mm)*
G04 Created by KiCad (PCBNEW (2014-08-24 BZR 5094)-product) date Mon 25 Aug 2014 20:36:51 CEST*
%MOMM*%
G01*
G04 APERTURE LIST*
%ADD10C,0.170000*%
%ADD11C,0.100000*%
%ADD12R,0.599440X1.000760*%
%ADD13R,1.000760X0.599440*%
%ADD14R,0.600000X1.600000*%
%ADD15R,3.048000X1.651000*%
%ADD16R,6.096000X6.096000*%
%ADD17R,1.200000X0.300000*%
%ADD18R,0.300000X1.200000*%
%ADD19R,1.300000X1.100000*%
%ADD20R,1.100000X1.300000*%
%ADD21R,0.900000X1.000000*%
%ADD22R,1.700000X2.400000*%
%ADD23R,2.400000X1.700000*%
%ADD24R,1.021080X0.408940*%
%ADD25R,1.600000X0.600000*%
G04 APERTURE END LIST*
D10*
D11*
X120000000Y-54000000D02*
G75*
G03X116000000Y-50000000I-4000000J0D01*
G74*
G01*
X116000000Y-120000000D02*
G75*
G03X120000000Y-116000000I0J4000000D01*
G74*
G01*
X50000000Y-116000000D02*
G75*
G03X54000000Y-120000000I4000000J0D01*
G74*
G01*
X54000000Y-50000000D02*
G75*
G03X50000000Y-54000000I0J-4000000D01*
G74*
G01*
X116000000Y-50000000D02*
X54000000Y-50000000D01*
X120000000Y-116000000D02*
X120000000Y-54000000D01*
X54000000Y-120000000D02*
X116000000Y-120000000D01*
X50000000Y-54000000D02*
X50000000Y-116000000D01*
D12*
X113247500Y-61556640D03*
X114200000Y-59443360D03*
X115152500Y-61556640D03*
D13*
X76543360Y-92947500D03*
X78656640Y-93900000D03*
X76543360Y-94852500D03*
X87943360Y-92947500D03*
X90056640Y-93900000D03*
X87943360Y-94852500D03*
X95756640Y-94852500D03*
X93643360Y-93900000D03*
X95756640Y-92947500D03*
X80956640Y-77052500D03*
X78843360Y-76100000D03*
X80956640Y-75147500D03*
X104516640Y-100752500D03*
X102403360Y-99800000D03*
X104516640Y-98847500D03*
D14*
X86475000Y-58250000D03*
X86475000Y-52850000D03*
X85225000Y-58250000D03*
X83975000Y-58250000D03*
X82725000Y-58250000D03*
X85225000Y-52850000D03*
X83975000Y-52850000D03*
X82725000Y-52850000D03*
D15*
X112025000Y-110236000D03*
D16*
X105675000Y-107950000D03*
D15*
X112025000Y-105664000D03*
D17*
X80750000Y-64470000D03*
X80750000Y-64970000D03*
X80750000Y-65470000D03*
X80750000Y-65970000D03*
X80750000Y-66470000D03*
X80750000Y-66970000D03*
X80750000Y-67470000D03*
X80750000Y-67970000D03*
X80750000Y-68470000D03*
X80750000Y-68970000D03*
X80750000Y-69470000D03*
X80750000Y-69970000D03*
D18*
X82250000Y-71470000D03*
X82750000Y-71470000D03*
X83250000Y-71470000D03*
X83750000Y-71470000D03*
X84250000Y-71470000D03*
X84750000Y-71470000D03*
X85250000Y-71470000D03*
X85750000Y-71470000D03*
X86250000Y-71470000D03*
X86750000Y-71470000D03*
X87250000Y-71470000D03*
X87750000Y-71470000D03*
D17*
X89250000Y-69970000D03*
X89250000Y-69470000D03*
X89250000Y-68970000D03*
X89250000Y-68470000D03*
X89250000Y-67970000D03*
X89250000Y-67470000D03*
X89250000Y-66970000D03*
X89250000Y-66470000D03*
X89250000Y-65970000D03*
X89250000Y-65470000D03*
X89250000Y-64970000D03*
X89250000Y-64470000D03*
D18*
X87750000Y-62970000D03*
X87250000Y-62970000D03*
X86750000Y-62970000D03*
X86250000Y-62970000D03*
X85750000Y-62970000D03*
X85250000Y-62970000D03*
X84750000Y-62970000D03*
X84250000Y-62970000D03*
X83750000Y-62970000D03*
X83250000Y-62970000D03*
X82750000Y-62970000D03*
X82250000Y-62970000D03*
D19*
X61630000Y-75180000D03*
X61630000Y-73380000D03*
D20*
X72400000Y-104600000D03*
X74200000Y-104600000D03*
D19*
X54930000Y-73380000D03*
X54930000Y-75180000D03*
D20*
X65900000Y-58280300D03*
X67700000Y-58200000D03*
X69100000Y-104600000D03*
X70900000Y-104600000D03*
D21*
X74250000Y-67300000D03*
X75750000Y-67300000D03*
X74250000Y-65700000D03*
X75750000Y-65700000D03*
D19*
X75000000Y-97200000D03*
X75000000Y-99000000D03*
D20*
X93900000Y-67175000D03*
X92100000Y-67175000D03*
X93900000Y-65575000D03*
X92100000Y-65575000D03*
D19*
X75500000Y-52200000D03*
X75500000Y-54000000D03*
D20*
X92100000Y-61025000D03*
X93900000Y-61025000D03*
X92100000Y-59075000D03*
X93900000Y-59075000D03*
D19*
X56630000Y-75180000D03*
X56630000Y-73380000D03*
D20*
X84100000Y-60200000D03*
X85900000Y-60200000D03*
X82600000Y-60200000D03*
X80800000Y-60200000D03*
D19*
X58330000Y-75180000D03*
X58330000Y-73380000D03*
X65030000Y-75180000D03*
X65030000Y-73380000D03*
X63330000Y-75180000D03*
X63330000Y-73380000D03*
D20*
X59100000Y-94200000D03*
X60900000Y-94200000D03*
D19*
X76110000Y-77010000D03*
X76110000Y-75210000D03*
D22*
X62980000Y-116640000D03*
X62980000Y-112640000D03*
D23*
X103800000Y-102850000D03*
X107800000Y-102850000D03*
D20*
X75700000Y-104600000D03*
X77500000Y-104600000D03*
D24*
X75601240Y-102675360D03*
X75601240Y-102025120D03*
X75601240Y-101374880D03*
X75601240Y-100724640D03*
X70998760Y-100724640D03*
X70998760Y-101374880D03*
X70998760Y-102025120D03*
X70998760Y-102675360D03*
D13*
X87943360Y-75147500D03*
X90056640Y-76100000D03*
X87943360Y-77052500D03*
X91643360Y-75147500D03*
X93756640Y-76100000D03*
X91643360Y-77052500D03*
D19*
X82780000Y-99640000D03*
X82780000Y-97840000D03*
D25*
X84850000Y-102385000D03*
X90250000Y-102385000D03*
X84850000Y-101135000D03*
X84850000Y-99885000D03*
X84850000Y-98635000D03*
X90250000Y-101135000D03*
X90250000Y-99885000D03*
X90250000Y-98635000D03*
D19*
X72920000Y-97200000D03*
X72920000Y-99000000D03*
X71000000Y-99000000D03*
X71000000Y-97200000D03*
D20*
X67700000Y-60690000D03*
X65900000Y-60690000D03*
X69100000Y-106500000D03*
X70900000Y-106500000D03*
X77500000Y-106490000D03*
X75700000Y-106490000D03*
D19*
X81190000Y-92990000D03*
X81190000Y-94790000D03*
X83730000Y-92990000D03*
X83730000Y-94790000D03*
X83730000Y-77010000D03*
X83730000Y-75210000D03*
X86270000Y-92990000D03*
X86270000Y-94790000D03*
X86270000Y-77010000D03*
X86270000Y-75210000D03*
X91700000Y-93000000D03*
X91700000Y-94800000D03*
X95400000Y-77000000D03*
X95400000Y-75200000D03*
M02*
