M48
;DRILL file {kicad (2014-08-24 BZR 5094)-product} date Mon 25 Aug 2014 20:36:53 CEST
;FORMAT={-:-/ absolute / metric / decimal}
FMAT,2
METRIC,TZ
T1C0.250
T2C0.500
T3C0.800
T4C0.900
T5C1.000
T6C1.001
T7C1.100
T8C1.200
T9C1.800
T10C1.900
T11C2.000
T12C3.000
T13C3.100
T14C3.300
T15C3.600
%
G90
G05
M71
T1
X59.33Y-73.43
X66.03Y-73.43
X70.1Y-102.
X74.Y-102.
X75.04Y-75.21
X78.9Y-68.7
X80.03Y-84.06
X80.082Y-71.082
X80.14Y-94.79
X80.8Y-56.99
X81.06Y-72.59
X81.26Y-73.88
X81.337Y-78.473
X82.5Y-64.9
X82.52Y-88.73
X82.7Y-68.2
X83.557Y-74.26
X83.86Y-85.14
X84.04Y-64.41
X84.25Y-73.96
X85.Y-78.68
X85.24Y-94.79
X86.42Y-68.47
X86.48Y-57.01
X87.4Y-64.7
X87.76Y-83.26
X88.075Y-65.805
X88.1Y-67.47
X88.54Y-71.47
X88.557Y-72.43
X88.81Y-77.73
X90.31Y-67.075
X90.5Y-68.76
X90.64Y-94.81
X92.53Y-77.73
X92.76Y-91.49
X101.5Y-107.25
X107.75Y-92.5
X109.075Y-109.3
X110.15Y-105.175
X110.575Y-111.625
X111.55Y-107.875
T2
X77.35Y-66.2
X78.45Y-66.2
T3
X110.055Y-68.9
X110.055Y-70.5
X110.055Y-72.1
X111.255Y-69.7
X111.255Y-71.3
T4
X66.03Y-101.4
X68.57Y-101.4
X76.11Y-79.92
X78.65Y-79.92
X78.65Y-90.08
X78.95Y-97.46
X78.95Y-100.
X81.19Y-90.08
X83.73Y-79.92
X83.73Y-90.08
X86.27Y-79.92
X86.27Y-90.08
X88.81Y-90.08
X91.35Y-90.08
X93.89Y-79.92
X93.89Y-90.08
X105.655Y-114.225
X108.195Y-114.225
X116.55Y-105.655
X116.55Y-108.195
T5
X55.36Y-71.23
X57.9Y-71.23
X62.06Y-71.23
X64.6Y-71.23
X66.8Y-106.93
X66.8Y-109.47
X68.439Y-93.9
X70.86Y-112.4
X70.979Y-93.9
X72.Y-60.69
X72.Y-63.23
X72.Y-65.77
X72.Y-68.31
X75.94Y-112.4
X79.23Y-102.5
X81.77Y-102.5
X90.33Y-53.
X90.33Y-56.5
X92.87Y-53.
X92.87Y-56.5
X93.5Y-97.91
X96.03Y-52.11
X96.03Y-54.65
X96.03Y-57.19
X96.03Y-59.73
X96.03Y-62.27
X96.03Y-64.81
X96.03Y-67.35
X96.03Y-69.89
X96.04Y-97.91
X98.57Y-52.11
X98.57Y-54.65
X98.57Y-57.19
X98.57Y-59.73
X98.57Y-62.27
X98.57Y-64.81
X98.57Y-67.35
X98.57Y-69.89
X102.65Y-114.255
X102.65Y-116.795
X107.93Y-100.1
X110.47Y-100.1
T6
X94.46Y-101.59
X99.54Y-101.6
T7
X60.3Y-54.
X65.3Y-54.
X68.3Y-54.
X73.3Y-54.
X80.6Y-107.26
X80.6Y-109.8
X80.6Y-112.34
T8
X57.5Y-77.5
X57.5Y-92.
X60.Y-77.5
X62.5Y-77.5
X62.5Y-92.
T9
X52.Y-105.
X55.4Y-109.5
X58.4Y-102.5
X59.8Y-99.8
X63.Y-109.
X101.9Y-84.5
X101.9Y-94.75
T10
X110.955Y-66.8
X115.705Y-66.8
X115.705Y-74.2
T11
X116.75Y-77.9
X116.75Y-101.1
T12
X54.4Y-85.
X65.6Y-85.
T13
X102.2Y-60.74
X107.Y-57.49
T14
X116.Y-54.
T15
X107.Y-63.74
T0
M30
