<?xml version="1.0" encoding="UTF-8" standalone="no"?>
<!-- Created with Inkscape (http://www.inkscape.org/) -->

<svg
   xmlns:dc="http://purl.org/dc/elements/1.1/"
   xmlns:cc="http://creativecommons.org/ns#"
   xmlns:rdf="http://www.w3.org/1999/02/22-rdf-syntax-ns#"
   xmlns:svg="http://www.w3.org/2000/svg"
   xmlns="http://www.w3.org/2000/svg"
   xmlns:sodipodi="http://sodipodi.sourceforge.net/DTD/sodipodi-0.dtd"
   xmlns:inkscape="http://www.inkscape.org/namespaces/inkscape"
   width="120"
   height="120"
   id="svg2"
   version="1.1"
   inkscape:version="0.48.4 r9939"
   sodipodi:docname="ynsta.svg">
  <defs
     id="defs4">
    <linearGradient
       id="linearGradient3797">
      <stop
         style="stop-color:#ffffff;stop-opacity:1;"
         offset="0"
         id="stop3799" />
      <stop
         style="stop-color:#ffffff;stop-opacity:0;"
         offset="1"
         id="stop3801" />
    </linearGradient>
  </defs>
  <sodipodi:namedview
     id="base"
     pagecolor="#ffffff"
     bordercolor="#666666"
     borderopacity="1.0"
     inkscape:pageopacity="0.0"
     inkscape:pageshadow="2"
     inkscape:zoom="2.8"
     inkscape:cx="82.927389"
     inkscape:cy="57.511344"
     inkscape:document-units="px"
     inkscape:current-layer="layer1"
     showgrid="false"
     units="mm"
     fit-margin-top="0"
     fit-margin-left="0"
     fit-margin-right="0"
     fit-margin-bottom="0"
     inkscape:window-width="1268"
     inkscape:window-height="784"
     inkscape:window-x="648"
     inkscape:window-y="154"
     inkscape:window-maximized="0" />
  <metadata
     id="metadata7">
    <rdf:RDF>
      <cc:Work
         rdf:about="">
        <dc:format>image/svg+xml</dc:format>
        <dc:type
           rdf:resource="http://purl.org/dc/dcmitype/StillImage" />
        <dc:title />
      </cc:Work>
    </rdf:RDF>
  </metadata>
  <g
     inkscape:label="Layer 1"
     inkscape:groupmode="layer"
     id="layer1"
     transform="translate(-288.5,-292)">
    <rect
       style="fill:#ffffff;fill-opacity:1;stroke:#c8c8c8;stroke-width:1.31868147999999996;stroke-opacity:1"
       id="rect3019"
       width="118.68132"
       height="118.68132"
       x="289.15536"
       y="292.66602"
       ry="23.54788" />
    <path
       sodipodi:type="spiral"
       style="opacity:0.1;fill:none;stroke:#000000;stroke-width:10;stroke-linecap:square;stroke-linejoin:round;stroke-miterlimit:4;stroke-opacity:1;stroke-dasharray:none"
       id="path2985"
       sodipodi:cx="351.42856"
       sodipodi:cy="320.93362"
       sodipodi:expansion="1.13"
       sodipodi:revolution="2.2994447"
       sodipodi:radius="43.667095"
       sodipodi:argument="-18.849556"
       sodipodi:t0="0.52357483"
       d="m 357.42791,341.07766 c -11.89241,5.56596 -25.84019,-1.08789 -30.93044,-12.719 -6.36237,-14.53788 1.80139,-31.31874 16.04798,-37.25189 17.235,-7.1777 36.91749,2.53652 43.70033,19.4575 8.00851,19.97865 -3.29008,42.6208 -22.93663,50.26086 -8.00022,3.11108 -16.88477,3.6621 -25.22948,1.6852"
       transform="matrix(0.95710272,0,0,-0.86387785,9.4276785,617.1709)" />
    <path
       style="opacity:0.1;fill:none;stroke:#000000;stroke-width:9.73354626;stroke-linecap:butt;stroke-linejoin:miter;stroke-miterlimit:4;stroke-opacity:1;stroke-dasharray:none"
       d="m 309.56855,400.92704 c 0,0 1.78532,-8.3885 44.19238,-19.6888 27.99862,-7.46086 40.91892,-8.72353 40.91892,-8.72353"
       id="path3775"
       inkscape:connector-curvature="0"
       sodipodi:nodetypes="csc" />
    <path
       style="opacity:0.1;fill:none;stroke:#000000;stroke-width:9.73354626;stroke-linecap:butt;stroke-linejoin:miter;stroke-miterlimit:4;stroke-opacity:1;stroke-dasharray:none"
       d="m 394.40164,404.31467 c 0,0 -8.24548,-10.91382 -50.65254,-22.21412 -27.99862,-7.46086 -36.13363,-14.53177 -36.13363,-14.53177"
       id="path3775-2"
       inkscape:connector-curvature="0"
       sodipodi:nodetypes="csc" />
    <path
       sodipodi:type="spiral"
       style="fill:none;stroke:#4e5161;stroke-width:10;stroke-linecap:square;stroke-linejoin:round;stroke-miterlimit:4;stroke-opacity:1;stroke-dasharray:none"
       id="path2985-3"
       sodipodi:cx="351.42856"
       sodipodi:cy="320.93362"
       sodipodi:expansion="1.13"
       sodipodi:revolution="2.2994447"
       sodipodi:radius="43.667095"
       sodipodi:argument="-18.849556"
       sodipodi:t0="0.52357483"
       d="m 357.42791,341.07766 c -11.89241,5.56596 -25.84019,-1.08789 -30.93044,-12.719 -6.36237,-14.53788 1.80139,-31.31874 16.04798,-37.25189 17.235,-7.1777 36.91749,2.53652 43.70033,19.4575 8.00851,19.97865 -3.29008,42.6208 -22.93663,50.26086 -8.00022,3.11108 -16.88477,3.6621 -25.22948,1.6852"
       transform="matrix(0.98187147,0,0,-0.8333172,-0.92046135,605.35623)" />
    <path
       style="fill:none;stroke:#4e5161;stroke-width:9.6827364;stroke-linecap:butt;stroke-linejoin:miter;stroke-miterlimit:4;stroke-opacity:1;stroke-dasharray:none"
       d="m 306.98772,396.76223 c 0,0 1.83152,-8.09174 45.33603,-18.99228 28.7232,-7.19692 41.97786,-8.41492 41.97786,-8.41492"
       id="path3775-0"
       inkscape:connector-curvature="0"
       sodipodi:nodetypes="csc" />
    <path
       style="fill:none;stroke:#4e5161;stroke-width:9.6827364;stroke-linecap:butt;stroke-linejoin:miter;stroke-miterlimit:4;stroke-opacity:1;stroke-dasharray:none"
       d="m 394.0162,400.03002 c 0,0 -8.45886,-10.52773 -51.96337,-21.42827 -28.7232,-7.19692 -37.06873,-14.01769 -37.06873,-14.01769"
       id="path3775-2-3"
       inkscape:connector-curvature="0"
       sodipodi:nodetypes="csc" />
  </g>
</svg>
